<?xml version="1.0" encoding="ISO-8859-1" standalone="no"?>
<!DOCTYPE svg PUBLIC "-//W3C//DTD SVG 1.1//EN" "http://www.w3.org/Graphics/SVG/1.1/DTD/svg11.dtd">
<svg id="raiz_svg" width="100%" height="100%" preserveAspectRatio="xMidYMid meet" xmlns="http://www.w3.org/2000/svg" version="1.1" xmlns:xlink="http://www.w3.org/1999/xlink" viewBox="0 0 300 300">

  <defs>

    <rect id="def_fundo" x="-150" y="-150" width="300" height="300"/>

    <clipPath id="corte_fundo">
      <use xlink:href="#def_fundo"/>
    </clipPath>

    <path id="def_tat" transform="translate(-8.5, -7.5)" fill-rule="evenodd" d="        M  2 1        v  1 h  1 v  1 h  1 v  1 h -1 v  4 h  1 v  1 h -1 v  1 h -1 v  1 h  2 v -1 h  2 v  1 h  1 v  1 h -1 v  2 h  1 v  1        h  2        v -1 h  1 v -2 h -1 v -1 h  1 v -1 h  2 v  1 h  2 v -1 h -1 v -1 h -1 v -1 h  1 v -4 h -1 v -1 h  1 v -1 h  1 v -1        h -2 v  2 h -1 v -1 h -2 v -1        h -2        v  1 h -2 v  1 h -1 v -2 h -2        M  8  7        v  1 h  1 v -1 h -1       "/>

    <circle id="def_ponto" cx="0" cy="0" r=".5"/>

  </defs>

  <g id="tela" clip-path="url(#corte_fundo)" transform="translate(150, 150) scale(1, -1)">
    <use id="fundo" xlink:href="#def_fundo" fill="#000000" fill-opacity="1"/>
    <use id="validate" xlink:href="http://svl.lsd.org.br:8080/APACHE/image/button/w3c-svg-1.1.svg#layer1" transform="scale(0.5) translate(214,-279) scale(1,-1)" opacity="1" style="visibility:visible"/>
    <a xlink:href="http://svl.lsd.org.br/current/" target="_blank"><use id="logo" transform="translate(-147, 147) scale(0.08) scale(1, -1)" opacity="1" style="visibility: visible;" xlink:href="http://svl.lsd.org.br:8080/appsweb/svl/.h/image/svl/svl-logo.svg#layer1"/></a>
  <path d="M 0 0 L 0 0" stroke="#ffffff" stroke-width="1" stroke-opacity="1"/><path d="M 0 0 L 0 0" stroke="#ffffff" stroke-width="1" stroke-opacity="1"/><path d="M 0 0 L 0 0" stroke="#123456" stroke-width="2" stroke-opacity="1"/><use id="tat_0" fill="#ffffff" fill-opacity="1" style="visibility: visible;" xlink:href="#def_tat" transform="translate(0) rotate(0) scale(-0.25)"/><path d="M 0 0 L 0.6945927106677213 3.939231012048832" stroke="#000000" stroke-width="2" stroke-opacity="1"/><use id="tat_1" fill="#ffffff" fill-opacity="1" style="visibility: visible;" xlink:href="#def_tat" transform="translate(0.694593, 3.93923) rotate(-10) scale(0)"/><path d="M 0 0 L 2.7361611466053497 7.517540966287267" stroke="#00ff00" stroke-width="2" stroke-opacity="1"/><use id="tat_2" fill="#ffffff" fill-opacity="1" style="visibility: visible;" xlink:href="#def_tat" transform="translate(2.73616, 7.51754) rotate(-20) scale(0.166667)"/><path d="M 0 0 L 5.999999999999999 10.392304845413264" stroke="#bfff7f" stroke-width="2" stroke-opacity="1"/><use id="tat_3" fill="#ffffff" fill-opacity="1" style="visibility: visible;" xlink:href="#def_tat" transform="translate(6, 10.3923) rotate(-30) scale(0.285714)"/><path d="M 0 0 L 10.284601754984628 12.256711089903648" stroke="#00007f" stroke-width="2" stroke-opacity="1"/><use id="tat_4" fill="#ffffff" fill-opacity="1" style="visibility: visible;" xlink:href="#def_tat" transform="translate(10.2846, 12.2567) rotate(-40) scale(0.375)"/><path d="M 0 0 L 15.32088886237956 12.855752193730787" stroke="#0000ff" stroke-width="2" stroke-opacity="1"/><use id="tat_5" fill="#ffffff" fill-opacity="1" style="visibility: visible;" xlink:href="#def_tat" transform="translate(15.3209, 12.8558) rotate(-50) scale(0.444444)"/><path d="M 0 0 L 20.784609690826528 12.000000000000004" stroke="#7f0000" stroke-width="2" stroke-opacity="1"/><use id="tat_6" fill="#ffffff" fill-opacity="1" style="visibility: visible;" xlink:href="#def_tat" transform="translate(20.7846, 12) rotate(-60) scale(0.5)"/><path d="M 0 0 L 26.311393382005434 9.576564013118727" stroke="#00ffff" stroke-width="2" stroke-opacity="1"/><use id="tat_7" fill="#ffffff" fill-opacity="1" style="visibility: visible;" xlink:href="#def_tat" transform="translate(26.3114, 9.57656) rotate(-70) scale(0.545455)"/><path d="M 0 0 L 31.513848096390657 5.556741685341773" stroke="#ff0000" stroke-width="2" stroke-opacity="1"/><use id="tat_8" fill="#ffffff" fill-opacity="1" style="visibility: visible;" xlink:href="#def_tat" transform="translate(31.5138, 5.55674) rotate(-80) scale(0.583333)"/><path d="M 0 0 L 36 2.204364238465236e-15" stroke="#ff7f7f" stroke-width="2" stroke-opacity="1"/><use id="tat_9" fill="#ffffff" fill-opacity="1" style="visibility: visible;" xlink:href="#def_tat" transform="translate(36, 2.20436e-15) rotate(-90) scale(0.615385)"/><path d="M 0 0 L 39.39231012048832 -6.945927106677212" stroke="#ffff00" stroke-width="2" stroke-opacity="1"/><use id="tat_10" fill="#ffffff" fill-opacity="1" style="visibility: visible;" xlink:href="#def_tat" transform="translate(39.3923, -6.94593) rotate(-100) scale(0.642857)"/><path d="M 0 0 L 41.34647531457997 -15.048886306329424" stroke="#ffffbf" stroke-width="2" stroke-opacity="1"/><use id="tat_11" fill="#ffffff" fill-opacity="1" style="visibility: visible;" xlink:href="#def_tat" transform="translate(41.3465, -15.0489) rotate(-110) scale(0.666667)"/><path d="M 0 0 L 41.569219381653056 -23.99999999999999" stroke="#007f00" stroke-width="2" stroke-opacity="1"/><use id="tat_12" fill="#ffffff" fill-opacity="1" style="visibility: visible;" xlink:href="#def_tat" transform="translate(41.5692, -24) rotate(-120) scale(0.6875)"/><path d="M 0 0 L 39.834311042186854 -33.42495570370005" stroke="#ff00ff" stroke-width="2" stroke-opacity="1"/><use id="tat_13" fill="#ffffff" fill-opacity="1" style="visibility: visible;" xlink:href="#def_tat" transform="translate(39.8343, -33.425) rotate(-130) scale(0.705882)"/><path d="M 0 0 L 35.99610614244621 -42.89848881466276" stroke="#7F7F7F" stroke-width="2" stroke-opacity="1"/><use id="tat_14" fill="#ffffff" fill-opacity="1" style="visibility: visible;" xlink:href="#def_tat" transform="translate(35.9961, -42.8985) rotate(-140) scale(0.722222)"/><path d="M 0 0 L 29.999999999999996 -51.96152422706632" stroke="#ffffff" stroke-width="2" stroke-opacity="1"/><use id="tat_15" fill="#ffffff" fill-opacity="1" style="visibility: visible;" xlink:href="#def_tat" transform="translate(30, -51.9615) rotate(-150) scale(0.736842)"/><path d="M 0 0 L 21.88928917284281 -60.14032773029813" stroke="#123456" stroke-width="2" stroke-opacity="1"/><use id="tat_16" fill="#ffffff" fill-opacity="1" style="visibility: visible;" xlink:href="#def_tat" transform="translate(21.8893, -60.1403) rotate(-160) scale(0.75)"/><path d="M 0 0 L 11.808076081351258 -66.96692720483014" stroke="#000000" stroke-width="2" stroke-opacity="1"/><use id="tat_17" fill="#ffffff" fill-opacity="1" style="visibility: visible;" xlink:href="#def_tat" transform="translate(11.8081, -66.9669) rotate(-170) scale(0.761905)"/><path d="M 0 0 L 8.817456953860943e-15 -72" stroke="#00ff00" stroke-width="2" stroke-opacity="1"/><use id="tat_18" fill="#ffffff" fill-opacity="1" style="visibility: visible;" xlink:href="#def_tat" transform="translate(8.81746e-15, -72) rotate(-180) scale(0.772727)"/><path d="M 0 0 L -13.197261502686716 -74.84538922892781" stroke="#bfff7f" stroke-width="2" stroke-opacity="1"/><use id="tat_19" fill="#ffffff" fill-opacity="1" style="visibility: visible;" xlink:href="#def_tat" transform="translate(-13.1973, -74.8454) rotate(-190) scale(0.782609)"/><path d="M 0 0 L -27.361611466053493 -75.17540966287268" stroke="#00007f" stroke-width="2" stroke-opacity="1"/><use id="tat_20" fill="#ffffff" fill-opacity="1" style="visibility: visible;" xlink:href="#def_tat" transform="translate(-27.3616, -75.1754) rotate(-200) scale(0.791667)"/><path d="M 0 0 L -42.00000000000001 -72.74613391789285" stroke="#0000ff" stroke-width="2" stroke-opacity="1"/><use id="tat_21" fill="#ffffff" fill-opacity="1" style="visibility: visible;" xlink:href="#def_tat" transform="translate(-42, -72.7461) rotate(-210) scale(0.8)"/><path d="M 0 0 L -56.56530965241545 -67.41191099447006" stroke="#7f0000" stroke-width="2" stroke-opacity="1"/><use id="tat_22" fill="#ffffff" fill-opacity="1" style="visibility: visible;" xlink:href="#def_tat" transform="translate(-56.5653, -67.4119) rotate(-220) scale(0.807692)"/><path d="M 0 0 L -70.47608876694596 -59.13646009116163" stroke="#00ffff" stroke-width="2" stroke-opacity="1"/><use id="tat_23" fill="#ffffff" fill-opacity="1" style="visibility: visible;" xlink:href="#def_tat" transform="translate(-70.4761, -59.1365) rotate(-230) scale(0.814815)"/><path d="M 0 0 L -83.13843876330608 -48.00000000000004" stroke="#ff0000" stroke-width="2" stroke-opacity="1"/><use id="tat_24" fill="#ffffff" fill-opacity="1" style="visibility: visible;" xlink:href="#def_tat" transform="translate(-83.1384, -48) rotate(-240) scale(0.821429)"/><path d="M 0 0 L -93.96926207859084 -34.202014332566854" stroke="#ff7f7f" stroke-width="2" stroke-opacity="1"/><use id="tat_25" fill="#ffffff" fill-opacity="1" style="visibility: visible;" xlink:href="#def_tat" transform="translate(-93.9693, -34.202) rotate(-250) scale(0.827586)"/><path d="M 0 0 L -102.42000631326964 -18.059410477360753" stroke="#ffff00" stroke-width="2" stroke-opacity="1"/><use id="tat_26" fill="#ffffff" fill-opacity="1" style="visibility: visible;" xlink:href="#def_tat" transform="translate(-102.42, -18.0594) rotate(-260) scale(0.833333)"/><path d="M 0 0 L -108 -1.983927814618712e-14" stroke="#ffffbf" stroke-width="2" stroke-opacity="1"/><use id="tat_27" fill="#ffffff" fill-opacity="1" style="visibility: visible;" xlink:href="#def_tat" transform="translate(-108, -1.98393e-14) rotate(-270) scale(0.83871)"/><path d="M 0 0 L -110.29846833736731 19.448595898696155" stroke="#007f00" stroke-width="2" stroke-opacity="1"/><use id="tat_28" fill="#ffffff" fill-opacity="1" style="visibility: visible;" xlink:href="#def_tat" transform="translate(-110.298, 19.4486) rotate(-280) scale(0.84375)"/><path d="M 0 0 L -109.00434401116536 39.674336625777606" stroke="#ff00ff" stroke-width="2" stroke-opacity="1"/><use id="tat_29" fill="#ffffff" fill-opacity="1" style="visibility: visible;" xlink:href="#def_tat" transform="translate(-109.004, 39.6743) rotate(-290) scale(0.848485)"/><path d="M 0 0 L -103.92304845413263 60.000000000000014" stroke="#7F7F7F" stroke-width="2" stroke-opacity="1"/><use id="tat_30" fill="#ffffff" fill-opacity="1" style="visibility: visible;" xlink:href="#def_tat" transform="translate(-103.923, 60) rotate(-300) scale(0.852941)"/><path d="M 0 0 L -94.98951094675328 79.70566360113087" stroke="#ffffff" stroke-width="2" stroke-opacity="1"/><use id="tat_31" fill="#ffffff" fill-opacity="1" style="visibility: visible;" xlink:href="#def_tat" transform="translate(-94.9895, 79.7057) rotate(-310) scale(0.857143)"/><path d="M 0 0 L -82.27681403987707 98.05368871922916" stroke="#123456" stroke-width="2" stroke-opacity="1"/><use id="tat_32" fill="#ffffff" fill-opacity="1" style="visibility: visible;" xlink:href="#def_tat" transform="translate(-82.2768, 98.0537) rotate(-320) scale(0.861111)"/><path d="M 0 0 L -66.00000000000006 114.31535329954586" stroke="#000000" stroke-width="2" stroke-opacity="1"/><use id="tat_33" fill="#ffffff" fill-opacity="1" style="visibility: visible;" xlink:href="#def_tat" transform="translate(-66, 114.315) rotate(-330) scale(0.864865)"/><path d="M 0 0 L -46.51473949229093 127.79819642688355" stroke="#00ff00" stroke-width="2" stroke-opacity="1"/><use id="tat_34" fill="#ffffff" fill-opacity="1" style="visibility: visible;" xlink:href="#def_tat" transform="translate(-46.5147, 127.798) rotate(-340) scale(0.868421)"/><path d="M 0 0 L -24.310744873370254 137.87308542170913" stroke="#bfff7f" stroke-width="2" stroke-opacity="1"/><use id="tat_35" fill="#ffffff" fill-opacity="1" style="visibility: visible;" xlink:href="#def_tat" transform="translate(-24.3107, 137.873) rotate(-350) scale(0.871795)"/></g>

</svg>
