<svg version="1.1" baseProfile="full" xmlns="http://www.w3.org/2000/svg" xmlns:xlink="http://www.w3.org/1999/xlink" xmlns:ev="http://www.w3.org/2001/xml-events" id="raiz" width="100%" height="100%" preserveAspectRatio="xMidYMid meet" viewBox="0 0 300 300">

<!--
  Scalable Vector Logo - SVL
  Arkanon <arkanon@lsd.org.br>
  v0.16 - 2014/03/02 (Sun) 22:06:40 (BRS)
-->

  <defs>
    <circle id="def_ponto" cx="0" cy="0" r=".5"/>
    <path id="def_tat" transform="translate(-8.5 -7.5)" fill-rule="evenodd" d="        M  2 1        v  1 h  1 v  1 h  1 v  1 h -1 v  4 h  1 v  1 h -1 v  1 h -1 v  1 h  2 v -1 h  2 v  1 h  1 v  1 h -1 v  2 h  1 v  1        h  2        v -1 h  1 v -2 h -1 v -1 h  1 v -1 h  2 v  1 h  2 v -1 h -1 v -1 h -1 v -1 h  1 v -4 h -1 v -1 h  1 v -1 h  1 v -1        h -2 v  2 h -1 v -1 h -2 v -1        h -2        v  1 h -2 v  1 h -1 v -2 h -2        M  8  7        v  1 h  1 v -1 h -1       "/>
  </defs>

  <g id="tela" transform="translate(150,150) scale(1,-1)">
    <rect id="fundo" width="300" height="300" x="-150" y="-150" fill="#000000" fill-opacity="1"/>
    <image id="logo" xlink:href="svl-logo.svg#layer1" width="1000" height="1000" transform="translate(-147,147) scale(0.08) scale(1,-1)" opacity="1" style="visibility:visible"/>
    <image id="validate" xlink:href="w3c-svg-1.1.svg#layer1" width="1000" height="1000" transform="scale(0.5) translate(214,-279) scale(1,-1)" opacity="1" style="visibility:visible"/>
    <a id="save" xlink:href="">
      <image id="floppy" xlink:href="save_as.svg" x="0" y="0" width="150" height="150" transform="scale(0.4) scale(1,-1)"/>
    </a>
  <path d="M 0 0 L 0 0" stroke="#ffffff" stroke-width="1" stroke-opacity="1"/><path d="M -110 -110 L -107.28395061728395 -110" stroke="#ffffff" stroke-width="0.1" stroke-opacity="1"/><path d="M -107.28395061728395 -110 L -105.92592592592592 -107.64783223663486" stroke="#ffffff" stroke-width="0.1" stroke-opacity="1"/><path d="M -105.92592592592592 -107.64783223663486 L -104.5679012345679 -110" stroke="#ffffff" stroke-width="0.1" stroke-opacity="1"/><path d="M -104.5679012345679 -110 L -101.85185185185185 -110" stroke="#ffffff" stroke-width="0.1" stroke-opacity="1"/><path d="M -101.85185185185185 -110 L -100.49382716049382 -107.64783223663486" stroke="#ffffff" stroke-width="0.1" stroke-opacity="1"/><path d="M -100.49382716049382 -107.64783223663486 L -101.85185185185185 -105.29566447326971" stroke="#ffffff" stroke-width="0.1" stroke-opacity="1"/><path d="M -101.85185185185185 -105.29566447326971 L -99.1358024691358 -105.29566447326971" stroke="#ffffff" stroke-width="0.1" stroke-opacity="1"/><path d="M -99.1358024691358 -105.29566447326971 L -97.77777777777777 -102.94349670990457" stroke="#ffffff" stroke-width="0.1" stroke-opacity="1"/><path d="M -97.77777777777777 -102.94349670990457 L -96.41975308641975 -105.29566447326971" stroke="#ffffff" stroke-width="0.1" stroke-opacity="1"/><path d="M -96.41975308641975 -105.29566447326971 L -93.7037037037037 -105.29566447326971" stroke="#ffffff" stroke-width="0.1" stroke-opacity="1"/><path d="M -93.7037037037037 -105.29566447326971 L -95.06172839506172 -107.64783223663486" stroke="#ffffff" stroke-width="0.1" stroke-opacity="1"/><path d="M -95.06172839506172 -107.64783223663486 L -93.7037037037037 -110" stroke="#ffffff" stroke-width="0.1" stroke-opacity="1"/><path d="M -93.7037037037037 -110 L -90.98765432098764 -110" stroke="#ffffff" stroke-width="0.1" stroke-opacity="1"/><path d="M -90.98765432098764 -110 L -89.62962962962962 -107.64783223663486" stroke="#ffffff" stroke-width="0.1" stroke-opacity="1"/><path d="M -89.62962962962962 -107.64783223663486 L -88.2716049382716 -110" stroke="#ffffff" stroke-width="0.1" stroke-opacity="1"/><path d="M -88.2716049382716 -110 L -85.55555555555554 -110" stroke="#ffffff" stroke-width="0.1" stroke-opacity="1"/><path d="M -85.55555555555554 -110 L -84.19753086419752 -107.64783223663486" stroke="#ffffff" stroke-width="0.1" stroke-opacity="1"/><path d="M -84.19753086419752 -107.64783223663486 L -85.55555555555554 -105.29566447326971" stroke="#ffffff" stroke-width="0.1" stroke-opacity="1"/><path d="M -85.55555555555554 -105.29566447326971 L -82.83950617283949 -105.29566447326971" stroke="#ffffff" stroke-width="0.1" stroke-opacity="1"/><path d="M -82.83950617283949 -105.29566447326971 L -81.48148148148147 -102.94349670990457" stroke="#ffffff" stroke-width="0.1" stroke-opacity="1"/><path d="M -81.48148148148147 -102.94349670990457 L -82.83950617283949 -100.59132894653942" stroke="#ffffff" stroke-width="0.1" stroke-opacity="1"/><path d="M -82.83950617283949 -100.59132894653942 L -85.55555555555554 -100.59132894653942" stroke="#ffffff" stroke-width="0.1" stroke-opacity="1"/><path d="M -85.55555555555554 -100.59132894653942 L -84.19753086419752 -98.23916118317428" stroke="#ffffff" stroke-width="0.1" stroke-opacity="1"/><path d="M -84.19753086419752 -98.23916118317428 L -85.55555555555554 -95.88699341980913" stroke="#ffffff" stroke-width="0.1" stroke-opacity="1"/><path d="M -85.55555555555554 -95.88699341980913 L -82.83950617283949 -95.88699341980913" stroke="#ffffff" stroke-width="0.1" stroke-opacity="1"/><path d="M -82.83950617283949 -95.88699341980913 L -81.48148148148147 -93.53482565644399" stroke="#ffffff" stroke-width="0.1" stroke-opacity="1"/><path d="M -81.48148148148147 -93.53482565644399 L -80.12345679012344 -95.88699341980913" stroke="#ffffff" stroke-width="0.1" stroke-opacity="1"/><path d="M -80.12345679012344 -95.88699341980913 L -77.40740740740739 -95.88699341980913" stroke="#ffffff" stroke-width="0.1" stroke-opacity="1"/><path d="M -77.40740740740739 -95.88699341980913 L -76.04938271604937 -93.53482565644399" stroke="#ffffff" stroke-width="0.1" stroke-opacity="1"/><path d="M -76.04938271604937 -93.53482565644399 L -77.40740740740739 -91.18265789307884" stroke="#ffffff" stroke-width="0.1" stroke-opacity="1"/><path d="M -77.40740740740739 -91.18265789307884 L -74.69135802469134 -91.18265789307884" stroke="#ffffff" stroke-width="0.1" stroke-opacity="1"/><path d="M -74.69135802469134 -91.18265789307884 L -73.33333333333331 -88.8304901297137" stroke="#ffffff" stroke-width="0.1" stroke-opacity="1"/><path d="M -73.33333333333331 -88.8304901297137 L -71.97530864197529 -91.18265789307884" stroke="#ffffff" stroke-width="0.1" stroke-opacity="1"/><path d="M -71.97530864197529 -91.18265789307884 L -69.25925925925924 -91.18265789307884" stroke="#ffffff" stroke-width="0.1" stroke-opacity="1"/><path d="M -69.25925925925924 -91.18265789307884 L -70.61728395061726 -93.53482565644399" stroke="#ffffff" stroke-width="0.1" stroke-opacity="1"/><path d="M -70.61728395061726 -93.53482565644399 L -69.25925925925924 -95.88699341980913" stroke="#ffffff" stroke-width="0.1" stroke-opacity="1"/><path d="M -69.25925925925924 -95.88699341980913 L -66.54320987654319 -95.88699341980913" stroke="#ffffff" stroke-width="0.1" stroke-opacity="1"/><path d="M -66.54320987654319 -95.88699341980913 L -65.18518518518516 -93.53482565644399" stroke="#ffffff" stroke-width="0.1" stroke-opacity="1"/><path d="M -65.18518518518516 -93.53482565644399 L -63.82716049382714 -95.88699341980913" stroke="#ffffff" stroke-width="0.1" stroke-opacity="1"/><path d="M -63.82716049382714 -95.88699341980913 L -61.111111111111086 -95.88699341980913" stroke="#ffffff" stroke-width="0.1" stroke-opacity="1"/><path d="M -61.111111111111086 -95.88699341980913 L -62.46913580246911 -98.23916118317428" stroke="#ffffff" stroke-width="0.1" stroke-opacity="1"/><path d="M -62.46913580246911 -98.23916118317428 L -61.111111111111086 -100.59132894653942" stroke="#ffffff" stroke-width="0.1" stroke-opacity="1"/><path d="M -61.111111111111086 -100.59132894653942 L -63.82716049382714 -100.59132894653942" stroke="#ffffff" stroke-width="0.1" stroke-opacity="1"/><path d="M -63.82716049382714 -100.59132894653942 L -65.18518518518516 -102.94349670990457" stroke="#ffffff" stroke-width="0.1" stroke-opacity="1"/><path d="M -65.18518518518516 -102.94349670990457 L -63.82716049382714 -105.29566447326971" stroke="#ffffff" stroke-width="0.1" stroke-opacity="1"/><path d="M -63.82716049382714 -105.29566447326971 L -61.111111111111086 -105.29566447326971" stroke="#ffffff" stroke-width="0.1" stroke-opacity="1"/><path d="M -61.111111111111086 -105.29566447326971 L -62.46913580246911 -107.64783223663486" stroke="#ffffff" stroke-width="0.1" stroke-opacity="1"/><path d="M -62.46913580246911 -107.64783223663486 L -61.111111111111086 -110" stroke="#ffffff" stroke-width="0.1" stroke-opacity="1"/><path d="M -61.111111111111086 -110 L -58.395061728395035 -110" stroke="#ffffff" stroke-width="0.1" stroke-opacity="1"/><path d="M -58.395061728395035 -110 L -57.03703703703701 -107.64783223663486" stroke="#ffffff" stroke-width="0.1" stroke-opacity="1"/><path d="M -57.03703703703701 -107.64783223663486 L -55.679012345678984 -110" stroke="#ffffff" stroke-width="0.1" stroke-opacity="1"/><path d="M -55.679012345678984 -110 L -52.96296296296293 -110" stroke="#ffffff" stroke-width="0.1" stroke-opacity="1"/><path d="M -52.96296296296293 -110 L -51.60493827160491 -107.64783223663486" stroke="#ffffff" stroke-width="0.1" stroke-opacity="1"/><path d="M -51.60493827160491 -107.64783223663486 L -52.96296296296293 -105.29566447326971" stroke="#ffffff" stroke-width="0.1" stroke-opacity="1"/><path d="M -52.96296296296293 -105.29566447326971 L -50.24691358024688 -105.29566447326971" stroke="#ffffff" stroke-width="0.1" stroke-opacity="1"/><path d="M -50.24691358024688 -105.29566447326971 L -48.88888888888886 -102.94349670990457" stroke="#ffffff" stroke-width="0.1" stroke-opacity="1"/><path d="M -48.88888888888886 -102.94349670990457 L -47.53086419753083 -105.29566447326971" stroke="#ffffff" stroke-width="0.1" stroke-opacity="1"/><path d="M -47.53086419753083 -105.29566447326971 L -44.81481481481478 -105.29566447326971" stroke="#ffffff" stroke-width="0.1" stroke-opacity="1"/><path d="M -44.81481481481478 -105.29566447326971 L -46.17283950617281 -107.64783223663486" stroke="#ffffff" stroke-width="0.1" stroke-opacity="1"/><path d="M -46.17283950617281 -107.64783223663486 L -44.81481481481478 -110" stroke="#ffffff" stroke-width="0.1" stroke-opacity="1"/><path d="M -44.81481481481478 -110 L -42.09876543209873 -110" stroke="#ffffff" stroke-width="0.1" stroke-opacity="1"/><path d="M -42.09876543209873 -110 L -40.740740740740705 -107.64783223663486" stroke="#ffffff" stroke-width="0.1" stroke-opacity="1"/><path d="M -40.740740740740705 -107.64783223663486 L -39.38271604938268 -110" stroke="#ffffff" stroke-width="0.1" stroke-opacity="1"/><path d="M -39.38271604938268 -110 L -36.66666666666663 -110" stroke="#ffffff" stroke-width="0.1" stroke-opacity="1"/><path d="M -36.66666666666663 -110 L -35.3086419753086 -107.64783223663486" stroke="#ffffff" stroke-width="0.1" stroke-opacity="1"/><path d="M -35.3086419753086 -107.64783223663486 L -36.66666666666663 -105.29566447326971" stroke="#ffffff" stroke-width="0.1" stroke-opacity="1"/><path d="M -36.66666666666663 -105.29566447326971 L -33.95061728395058 -105.29566447326971" stroke="#ffffff" stroke-width="0.1" stroke-opacity="1"/><path d="M -33.95061728395058 -105.29566447326971 L -32.59259259259255 -102.94349670990457" stroke="#ffffff" stroke-width="0.1" stroke-opacity="1"/><path d="M -32.59259259259255 -102.94349670990457 L -33.95061728395058 -100.59132894653942" stroke="#ffffff" stroke-width="0.1" stroke-opacity="1"/><path d="M -33.95061728395058 -100.59132894653942 L -36.66666666666663 -100.59132894653942" stroke="#ffffff" stroke-width="0.1" stroke-opacity="1"/><path d="M -36.66666666666663 -100.59132894653942 L -35.3086419753086 -98.23916118317428" stroke="#ffffff" stroke-width="0.1" stroke-opacity="1"/><path d="M -35.3086419753086 -98.23916118317428 L -36.66666666666663 -95.88699341980913" stroke="#ffffff" stroke-width="0.1" stroke-opacity="1"/><path d="M -36.66666666666663 -95.88699341980913 L -33.95061728395058 -95.88699341980913" stroke="#ffffff" stroke-width="0.1" stroke-opacity="1"/><path d="M -33.95061728395058 -95.88699341980913 L -32.59259259259255 -93.53482565644399" stroke="#ffffff" stroke-width="0.1" stroke-opacity="1"/><path d="M -32.59259259259255 -93.53482565644399 L -31.234567901234527 -95.88699341980913" stroke="#ffffff" stroke-width="0.1" stroke-opacity="1"/><path d="M -31.234567901234527 -95.88699341980913 L -28.518518518518476 -95.88699341980913" stroke="#ffffff" stroke-width="0.1" stroke-opacity="1"/><path d="M -28.518518518518476 -95.88699341980913 L -27.16049382716045 -93.53482565644399" stroke="#ffffff" stroke-width="0.1" stroke-opacity="1"/><path d="M -27.16049382716045 -93.53482565644399 L -28.518518518518476 -91.18265789307884" stroke="#ffffff" stroke-width="0.1" stroke-opacity="1"/><path d="M -28.518518518518476 -91.18265789307884 L -25.80246913580243 -91.18265789307884" stroke="#ffffff" stroke-width="0.1" stroke-opacity="1"/><path d="M -25.80246913580243 -91.18265789307884 L -24.444444444444404 -88.8304901297137" stroke="#ffffff" stroke-width="0.1" stroke-opacity="1"/><path d="M -24.444444444444404 -88.8304901297137 L -25.80246913580243 -86.47832236634855" stroke="#ffffff" stroke-width="0.1" stroke-opacity="1"/><path d="M -25.80246913580243 -86.47832236634855 L -28.518518518518476 -86.47832236634855" stroke="#ffffff" stroke-width="0.1" stroke-opacity="1"/><path d="M -28.518518518518476 -86.47832236634855 L -27.16049382716045 -84.1261546029834" stroke="#ffffff" stroke-width="0.1" stroke-opacity="1"/><path d="M -27.16049382716045 -84.1261546029834 L -28.518518518518476 -81.77398683961826" stroke="#ffffff" stroke-width="0.1" stroke-opacity="1"/><path d="M -28.518518518518476 -81.77398683961826 L -31.234567901234527 -81.77398683961826" stroke="#ffffff" stroke-width="0.1" stroke-opacity="1"/><path d="M -31.234567901234527 -81.77398683961826 L -32.59259259259255 -84.1261546029834" stroke="#ffffff" stroke-width="0.1" stroke-opacity="1"/><path d="M -32.59259259259255 -84.1261546029834 L -33.95061728395058 -81.77398683961826" stroke="#ffffff" stroke-width="0.1" stroke-opacity="1"/><path d="M -33.95061728395058 -81.77398683961826 L -36.66666666666663 -81.77398683961826" stroke="#ffffff" stroke-width="0.1" stroke-opacity="1"/><path d="M -36.66666666666663 -81.77398683961826 L -35.3086419753086 -79.42181907625312" stroke="#ffffff" stroke-width="0.1" stroke-opacity="1"/><path d="M -35.3086419753086 -79.42181907625312 L -36.66666666666663 -77.06965131288797" stroke="#ffffff" stroke-width="0.1" stroke-opacity="1"/><path d="M -36.66666666666663 -77.06965131288797 L -33.95061728395058 -77.06965131288797" stroke="#ffffff" stroke-width="0.1" stroke-opacity="1"/><path d="M -33.95061728395058 -77.06965131288797 L -32.59259259259255 -74.71748354952283" stroke="#ffffff" stroke-width="0.1" stroke-opacity="1"/><path d="M -32.59259259259255 -74.71748354952283 L -33.95061728395058 -72.36531578615768" stroke="#ffffff" stroke-width="0.1" stroke-opacity="1"/><path d="M -33.95061728395058 -72.36531578615768 L -36.66666666666663 -72.36531578615768" stroke="#ffffff" stroke-width="0.1" stroke-opacity="1"/><path d="M -36.66666666666663 -72.36531578615768 L -35.3086419753086 -70.01314802279254" stroke="#ffffff" stroke-width="0.1" stroke-opacity="1"/><path d="M -35.3086419753086 -70.01314802279254 L -36.66666666666663 -67.66098025942739" stroke="#ffffff" stroke-width="0.1" stroke-opacity="1"/><path d="M -36.66666666666663 -67.66098025942739 L -33.95061728395058 -67.66098025942739" stroke="#ffffff" stroke-width="0.1" stroke-opacity="1"/><path d="M -33.95061728395058 -67.66098025942739 L -32.59259259259255 -65.30881249606225" stroke="#ffffff" stroke-width="0.1" stroke-opacity="1"/><path d="M -32.59259259259255 -65.30881249606225 L -31.234567901234527 -67.66098025942739" stroke="#ffffff" stroke-width="0.1" stroke-opacity="1"/><path d="M -31.234567901234527 -67.66098025942739 L -28.518518518518476 -67.66098025942739" stroke="#ffffff" stroke-width="0.1" stroke-opacity="1"/><path d="M -28.518518518518476 -67.66098025942739 L -27.16049382716045 -65.30881249606225" stroke="#ffffff" stroke-width="0.1" stroke-opacity="1"/><path d="M -27.16049382716045 -65.30881249606225 L -28.518518518518476 -62.9566447326971" stroke="#ffffff" stroke-width="0.1" stroke-opacity="1"/><path d="M -28.518518518518476 -62.9566447326971 L -25.80246913580243 -62.9566447326971" stroke="#ffffff" stroke-width="0.1" stroke-opacity="1"/><path d="M -25.80246913580243 -62.9566447326971 L -24.444444444444404 -60.604476969331955" stroke="#ffffff" stroke-width="0.1" stroke-opacity="1"/><path d="M -24.444444444444404 -60.604476969331955 L -23.08641975308638 -62.9566447326971" stroke="#ffffff" stroke-width="0.1" stroke-opacity="1"/><path d="M -23.08641975308638 -62.9566447326971 L -20.37037037037033 -62.9566447326971" stroke="#ffffff" stroke-width="0.1" stroke-opacity="1"/><path d="M -20.37037037037033 -62.9566447326971 L -21.728395061728357 -65.30881249606225" stroke="#ffffff" stroke-width="0.1" stroke-opacity="1"/><path d="M -21.728395061728357 -65.30881249606225 L -20.37037037037033 -67.66098025942739" stroke="#ffffff" stroke-width="0.1" stroke-opacity="1"/><path d="M -20.37037037037033 -67.66098025942739 L -17.65432098765428 -67.66098025942739" stroke="#ffffff" stroke-width="0.1" stroke-opacity="1"/><path d="M -17.65432098765428 -67.66098025942739 L -16.296296296296255 -65.30881249606225" stroke="#ffffff" stroke-width="0.1" stroke-opacity="1"/><path d="M -16.296296296296255 -65.30881249606225 L -14.93827160493823 -67.66098025942739" stroke="#ffffff" stroke-width="0.1" stroke-opacity="1"/><path d="M -14.93827160493823 -67.66098025942739 L -12.22222222222218 -67.66098025942739" stroke="#ffffff" stroke-width="0.1" stroke-opacity="1"/><path d="M -12.22222222222218 -67.66098025942739 L -10.864197530864155 -65.30881249606225" stroke="#ffffff" stroke-width="0.1" stroke-opacity="1"/><path d="M -10.864197530864155 -65.30881249606225 L -12.222222222222179 -62.9566447326971" stroke="#ffffff" stroke-width="0.1" stroke-opacity="1"/><path d="M -12.222222222222179 -62.9566447326971 L -9.50617283950613 -62.9566447326971" stroke="#ffffff" stroke-width="0.1" stroke-opacity="1"/><path d="M -9.50617283950613 -62.9566447326971 L -8.148148148148104 -60.604476969331955" stroke="#ffffff" stroke-width="0.1" stroke-opacity="1"/><path d="M -8.148148148148104 -60.604476969331955 L -9.506172839506128 -58.25230920596681" stroke="#ffffff" stroke-width="0.1" stroke-opacity="1"/><path d="M -9.506172839506128 -58.25230920596681 L -12.222222222222177 -58.25230920596681" stroke="#ffffff" stroke-width="0.1" stroke-opacity="1"/><path d="M -12.222222222222177 -58.25230920596681 L -10.864197530864152 -55.900141442601665" stroke="#ffffff" stroke-width="0.1" stroke-opacity="1"/><path d="M -10.864197530864152 -55.900141442601665 L -12.222222222222175 -53.54797367923652" stroke="#ffffff" stroke-width="0.1" stroke-opacity="1"/><path d="M -12.222222222222175 -53.54797367923652 L -9.506172839506126 -53.54797367923652" stroke="#ffffff" stroke-width="0.1" stroke-opacity="1"/><path d="M -9.506172839506126 -53.54797367923652 L -8.1481481481481 -51.195805915871375" stroke="#ffffff" stroke-width="0.1" stroke-opacity="1"/><path d="M -8.1481481481481 -51.195805915871375 L -6.790123456790076 -53.54797367923652" stroke="#ffffff" stroke-width="0.1" stroke-opacity="1"/><path d="M -6.790123456790076 -53.54797367923652 L -4.074074074074027 -53.54797367923652" stroke="#ffffff" stroke-width="0.1" stroke-opacity="1"/><path d="M -4.074074074074027 -53.54797367923652 L -2.716049382716003 -51.195805915871375" stroke="#ffffff" stroke-width="0.1" stroke-opacity="1"/><path d="M -2.716049382716003 -51.195805915871375 L -4.074074074074026 -48.84363815250623" stroke="#ffffff" stroke-width="0.1" stroke-opacity="1"/><path d="M -4.074074074074026 -48.84363815250623 L -1.3580246913579779 -48.84363815250623" stroke="#ffffff" stroke-width="0.1" stroke-opacity="1"/><path d="M -1.3580246913579779 -48.84363815250623 L 4.6851411639181606e-14 -46.491470389141085" stroke="#ffffff" stroke-width="0.1" stroke-opacity="1"/><path d="M 4.6851411639181606e-14 -46.491470389141085 L 1.3580246913580716 -48.84363815250623" stroke="#ffffff" stroke-width="0.1" stroke-opacity="1"/><path d="M 1.3580246913580716 -48.84363815250623 L 4.074074074074121 -48.84363815250623" stroke="#ffffff" stroke-width="0.1" stroke-opacity="1"/><path d="M 4.074074074074121 -48.84363815250623 L 2.716049382716097 -51.195805915871375" stroke="#ffffff" stroke-width="0.1" stroke-opacity="1"/><path d="M 2.716049382716097 -51.195805915871375 L 4.0740740740741215 -53.54797367923652" stroke="#ffffff" stroke-width="0.1" stroke-opacity="1"/><path d="M 4.0740740740741215 -53.54797367923652 L 6.7901234567901705 -53.54797367923652" stroke="#ffffff" stroke-width="0.1" stroke-opacity="1"/><path d="M 6.7901234567901705 -53.54797367923652 L 8.148148148148195 -51.195805915871375" stroke="#ffffff" stroke-width="0.1" stroke-opacity="1"/><path d="M 8.148148148148195 -51.195805915871375 L 9.50617283950622 -53.54797367923652" stroke="#ffffff" stroke-width="0.1" stroke-opacity="1"/><path d="M 9.50617283950622 -53.54797367923652 L 12.22222222222227 -53.54797367923652" stroke="#ffffff" stroke-width="0.1" stroke-opacity="1"/><path d="M 12.22222222222227 -53.54797367923652 L 10.864197530864246 -55.900141442601665" stroke="#ffffff" stroke-width="0.1" stroke-opacity="1"/><path d="M 10.864197530864246 -55.900141442601665 L 12.222222222222271 -58.25230920596681" stroke="#ffffff" stroke-width="0.1" stroke-opacity="1"/><path d="M 12.222222222222271 -58.25230920596681 L 9.506172839506222 -58.25230920596681" stroke="#ffffff" stroke-width="0.1" stroke-opacity="1"/><path d="M 9.506172839506222 -58.25230920596681 L 8.148148148148199 -60.604476969331955" stroke="#ffffff" stroke-width="0.1" stroke-opacity="1"/><path d="M 8.148148148148199 -60.604476969331955 L 9.506172839506224 -62.9566447326971" stroke="#ffffff" stroke-width="0.1" stroke-opacity="1"/><path d="M 9.506172839506224 -62.9566447326971 L 12.222222222222273 -62.9566447326971" stroke="#ffffff" stroke-width="0.1" stroke-opacity="1"/><path d="M 12.222222222222273 -62.9566447326971 L 10.86419753086425 -65.30881249606225" stroke="#ffffff" stroke-width="0.1" stroke-opacity="1"/><path d="M 10.86419753086425 -65.30881249606225 L 12.222222222222275 -67.66098025942739" stroke="#ffffff" stroke-width="0.1" stroke-opacity="1"/><path d="M 12.222222222222275 -67.66098025942739 L 14.938271604938324 -67.66098025942739" stroke="#ffffff" stroke-width="0.1" stroke-opacity="1"/><path d="M 14.938271604938324 -67.66098025942739 L 16.296296296296347 -65.30881249606225" stroke="#ffffff" stroke-width="0.1" stroke-opacity="1"/><path d="M 16.296296296296347 -65.30881249606225 L 17.654320987654373 -67.66098025942739" stroke="#ffffff" stroke-width="0.1" stroke-opacity="1"/><path d="M 17.654320987654373 -67.66098025942739 L 20.370370370370424 -67.66098025942739" stroke="#ffffff" stroke-width="0.1" stroke-opacity="1"/><path d="M 20.370370370370424 -67.66098025942739 L 21.72839506172845 -65.30881249606225" stroke="#ffffff" stroke-width="0.1" stroke-opacity="1"/><path d="M 21.72839506172845 -65.30881249606225 L 20.370370370370424 -62.9566447326971" stroke="#ffffff" stroke-width="0.1" stroke-opacity="1"/><path d="M 20.370370370370424 -62.9566447326971 L 23.08641975308647 -62.9566447326971" stroke="#ffffff" stroke-width="0.1" stroke-opacity="1"/><path d="M 23.08641975308647 -62.9566447326971 L 24.444444444444496 -60.604476969331955" stroke="#ffffff" stroke-width="0.1" stroke-opacity="1"/><path d="M 24.444444444444496 -60.604476969331955 L 25.80246913580252 -62.9566447326971" stroke="#ffffff" stroke-width="0.1" stroke-opacity="1"/><path d="M 25.80246913580252 -62.9566447326971 L 28.51851851851857 -62.9566447326971" stroke="#ffffff" stroke-width="0.1" stroke-opacity="1"/><path d="M 28.51851851851857 -62.9566447326971 L 27.160493827160543 -65.30881249606225" stroke="#ffffff" stroke-width="0.1" stroke-opacity="1"/><path d="M 27.160493827160543 -65.30881249606225 L 28.51851851851857 -67.66098025942739" stroke="#ffffff" stroke-width="0.1" stroke-opacity="1"/><path d="M 28.51851851851857 -67.66098025942739 L 31.23456790123462 -67.66098025942739" stroke="#ffffff" stroke-width="0.1" stroke-opacity="1"/><path d="M 31.23456790123462 -67.66098025942739 L 32.592592592592645 -65.30881249606225" stroke="#ffffff" stroke-width="0.1" stroke-opacity="1"/><path d="M 32.592592592592645 -65.30881249606225 L 33.95061728395067 -67.66098025942739" stroke="#ffffff" stroke-width="0.1" stroke-opacity="1"/><path d="M 33.95061728395067 -67.66098025942739 L 36.66666666666672 -67.66098025942739" stroke="#ffffff" stroke-width="0.1" stroke-opacity="1"/><path d="M 36.66666666666672 -67.66098025942739 L 35.308641975308696 -70.01314802279254" stroke="#ffffff" stroke-width="0.1" stroke-opacity="1"/><path d="M 35.308641975308696 -70.01314802279254 L 36.66666666666672 -72.36531578615768" stroke="#ffffff" stroke-width="0.1" stroke-opacity="1"/><path d="M 36.66666666666672 -72.36531578615768 L 33.95061728395067 -72.36531578615768" stroke="#ffffff" stroke-width="0.1" stroke-opacity="1"/><path d="M 33.95061728395067 -72.36531578615768 L 32.592592592592645 -74.71748354952283" stroke="#ffffff" stroke-width="0.1" stroke-opacity="1"/><path d="M 32.592592592592645 -74.71748354952283 L 33.95061728395067 -77.06965131288797" stroke="#ffffff" stroke-width="0.1" stroke-opacity="1"/><path d="M 33.95061728395067 -77.06965131288797 L 36.66666666666672 -77.06965131288797" stroke="#ffffff" stroke-width="0.1" stroke-opacity="1"/><path d="M 36.66666666666672 -77.06965131288797 L 35.308641975308696 -79.42181907625312" stroke="#ffffff" stroke-width="0.1" stroke-opacity="1"/><path d="M 35.308641975308696 -79.42181907625312 L 36.66666666666672 -81.77398683961826" stroke="#ffffff" stroke-width="0.1" stroke-opacity="1"/><path d="M 36.66666666666672 -81.77398683961826 L 33.95061728395067 -81.77398683961826" stroke="#ffffff" stroke-width="0.1" stroke-opacity="1"/><path d="M 33.95061728395067 -81.77398683961826 L 32.592592592592645 -84.1261546029834" stroke="#ffffff" stroke-width="0.1" stroke-opacity="1"/><path d="M 32.592592592592645 -84.1261546029834 L 31.23456790123462 -81.77398683961826" stroke="#ffffff" stroke-width="0.1" stroke-opacity="1"/><path d="M 31.23456790123462 -81.77398683961826 L 28.518518518518572 -81.77398683961826" stroke="#ffffff" stroke-width="0.1" stroke-opacity="1"/><path d="M 28.518518518518572 -81.77398683961826 L 27.160493827160547 -84.1261546029834" stroke="#ffffff" stroke-width="0.1" stroke-opacity="1"/><path d="M 27.160493827160547 -84.1261546029834 L 28.518518518518572 -86.47832236634855" stroke="#ffffff" stroke-width="0.1" stroke-opacity="1"/><path d="M 28.518518518518572 -86.47832236634855 L 25.802469135802525 -86.47832236634855" stroke="#ffffff" stroke-width="0.1" stroke-opacity="1"/><path d="M 25.802469135802525 -86.47832236634855 L 24.4444444444445 -88.8304901297137" stroke="#ffffff" stroke-width="0.1" stroke-opacity="1"/><path d="M 24.4444444444445 -88.8304901297137 L 25.802469135802525 -91.18265789307884" stroke="#ffffff" stroke-width="0.1" stroke-opacity="1"/><path d="M 25.802469135802525 -91.18265789307884 L 28.518518518518576 -91.18265789307884" stroke="#ffffff" stroke-width="0.1" stroke-opacity="1"/><path d="M 28.518518518518576 -91.18265789307884 L 27.16049382716055 -93.53482565644399" stroke="#ffffff" stroke-width="0.1" stroke-opacity="1"/><path d="M 27.16049382716055 -93.53482565644399 L 28.518518518518576 -95.88699341980913" stroke="#ffffff" stroke-width="0.1" stroke-opacity="1"/><path d="M 28.518518518518576 -95.88699341980913 L 31.234567901234627 -95.88699341980913" stroke="#ffffff" stroke-width="0.1" stroke-opacity="1"/><path d="M 31.234567901234627 -95.88699341980913 L 32.59259259259265 -93.53482565644399" stroke="#ffffff" stroke-width="0.1" stroke-opacity="1"/><path d="M 32.59259259259265 -93.53482565644399 L 33.95061728395068 -95.88699341980913" stroke="#ffffff" stroke-width="0.1" stroke-opacity="1"/><path d="M 33.95061728395068 -95.88699341980913 L 36.66666666666673 -95.88699341980913" stroke="#ffffff" stroke-width="0.1" stroke-opacity="1"/><path d="M 36.66666666666673 -95.88699341980913 L 35.3086419753087 -98.23916118317428" stroke="#ffffff" stroke-width="0.1" stroke-opacity="1"/><path d="M 35.3086419753087 -98.23916118317428 L 36.66666666666673 -100.59132894653942" stroke="#ffffff" stroke-width="0.1" stroke-opacity="1"/><path d="M 36.66666666666673 -100.59132894653942 L 33.95061728395068 -100.59132894653942" stroke="#ffffff" stroke-width="0.1" stroke-opacity="1"/><path d="M 33.95061728395068 -100.59132894653942 L 32.59259259259265 -102.94349670990457" stroke="#ffffff" stroke-width="0.1" stroke-opacity="1"/><path d="M 32.59259259259265 -102.94349670990457 L 33.95061728395068 -105.29566447326971" stroke="#ffffff" stroke-width="0.1" stroke-opacity="1"/><path d="M 33.95061728395068 -105.29566447326971 L 36.66666666666673 -105.29566447326971" stroke="#ffffff" stroke-width="0.1" stroke-opacity="1"/><path d="M 36.66666666666673 -105.29566447326971 L 35.3086419753087 -107.64783223663486" stroke="#ffffff" stroke-width="0.1" stroke-opacity="1"/><path d="M 35.3086419753087 -107.64783223663486 L 36.66666666666673 -110" stroke="#ffffff" stroke-width="0.1" stroke-opacity="1"/><path d="M 36.66666666666673 -110 L 39.38271604938278 -110" stroke="#ffffff" stroke-width="0.1" stroke-opacity="1"/><path d="M 39.38271604938278 -110 L 40.740740740740804 -107.64783223663486" stroke="#ffffff" stroke-width="0.1" stroke-opacity="1"/><path d="M 40.740740740740804 -107.64783223663486 L 42.09876543209883 -110" stroke="#ffffff" stroke-width="0.1" stroke-opacity="1"/><path d="M 42.09876543209883 -110 L 44.81481481481488 -110" stroke="#ffffff" stroke-width="0.1" stroke-opacity="1"/><path d="M 44.81481481481488 -110 L 46.172839506172906 -107.64783223663486" stroke="#ffffff" stroke-width="0.1" stroke-opacity="1"/><path d="M 46.172839506172906 -107.64783223663486 L 44.81481481481488 -105.29566447326971" stroke="#ffffff" stroke-width="0.1" stroke-opacity="1"/><path d="M 44.81481481481488 -105.29566447326971 L 47.53086419753093 -105.29566447326971" stroke="#ffffff" stroke-width="0.1" stroke-opacity="1"/><path d="M 47.53086419753093 -105.29566447326971 L 48.88888888888896 -102.94349670990457" stroke="#ffffff" stroke-width="0.1" stroke-opacity="1"/><path d="M 48.88888888888896 -102.94349670990457 L 50.24691358024698 -105.29566447326971" stroke="#ffffff" stroke-width="0.1" stroke-opacity="1"/><path d="M 50.24691358024698 -105.29566447326971 L 52.96296296296303 -105.29566447326971" stroke="#ffffff" stroke-width="0.1" stroke-opacity="1"/><path d="M 52.96296296296303 -105.29566447326971 L 51.60493827160501 -107.64783223663486" stroke="#ffffff" stroke-width="0.1" stroke-opacity="1"/><path d="M 51.60493827160501 -107.64783223663486 L 52.96296296296303 -110" stroke="#ffffff" stroke-width="0.1" stroke-opacity="1"/><path d="M 52.96296296296303 -110 L 55.679012345679084 -110" stroke="#ffffff" stroke-width="0.1" stroke-opacity="1"/><path d="M 55.679012345679084 -110 L 57.03703703703711 -107.64783223663486" stroke="#ffffff" stroke-width="0.1" stroke-opacity="1"/><path d="M 57.03703703703711 -107.64783223663486 L 58.395061728395135 -110" stroke="#ffffff" stroke-width="0.1" stroke-opacity="1"/><path d="M 58.395061728395135 -110 L 61.111111111111185 -110" stroke="#ffffff" stroke-width="0.1" stroke-opacity="1"/><path d="M 61.111111111111185 -110 L 62.46913580246921 -107.64783223663486" stroke="#ffffff" stroke-width="0.1" stroke-opacity="1"/><path d="M 62.46913580246921 -107.64783223663486 L 61.111111111111185 -105.29566447326971" stroke="#ffffff" stroke-width="0.1" stroke-opacity="1"/><path d="M 61.111111111111185 -105.29566447326971 L 63.827160493827236 -105.29566447326971" stroke="#ffffff" stroke-width="0.1" stroke-opacity="1"/><path d="M 63.827160493827236 -105.29566447326971 L 65.18518518518526 -102.94349670990457" stroke="#ffffff" stroke-width="0.1" stroke-opacity="1"/><path d="M 65.18518518518526 -102.94349670990457 L 63.827160493827236 -100.59132894653942" stroke="#ffffff" stroke-width="0.1" stroke-opacity="1"/><path d="M 63.827160493827236 -100.59132894653942 L 61.111111111111185 -100.59132894653942" stroke="#ffffff" stroke-width="0.1" stroke-opacity="1"/><path d="M 61.111111111111185 -100.59132894653942 L 62.46913580246921 -98.23916118317428" stroke="#ffffff" stroke-width="0.1" stroke-opacity="1"/><path d="M 62.46913580246921 -98.23916118317428 L 61.111111111111185 -95.88699341980913" stroke="#ffffff" stroke-width="0.1" stroke-opacity="1"/><path d="M 61.111111111111185 -95.88699341980913 L 63.827160493827236 -95.88699341980913" stroke="#ffffff" stroke-width="0.1" stroke-opacity="1"/><path d="M 63.827160493827236 -95.88699341980913 L 65.18518518518526 -93.53482565644399" stroke="#ffffff" stroke-width="0.1" stroke-opacity="1"/><path d="M 65.18518518518526 -93.53482565644399 L 66.54320987654329 -95.88699341980913" stroke="#ffffff" stroke-width="0.1" stroke-opacity="1"/><path d="M 66.54320987654329 -95.88699341980913 L 69.25925925925934 -95.88699341980913" stroke="#ffffff" stroke-width="0.1" stroke-opacity="1"/><path d="M 69.25925925925934 -95.88699341980913 L 70.61728395061736 -93.53482565644399" stroke="#ffffff" stroke-width="0.1" stroke-opacity="1"/><path d="M 70.61728395061736 -93.53482565644399 L 69.25925925925934 -91.18265789307884" stroke="#ffffff" stroke-width="0.1" stroke-opacity="1"/><path d="M 69.25925925925934 -91.18265789307884 L 71.97530864197539 -91.18265789307884" stroke="#ffffff" stroke-width="0.1" stroke-opacity="1"/><path d="M 71.97530864197539 -91.18265789307884 L 73.33333333333341 -88.8304901297137" stroke="#ffffff" stroke-width="0.1" stroke-opacity="1"/><path d="M 73.33333333333341 -88.8304901297137 L 74.69135802469144 -91.18265789307884" stroke="#ffffff" stroke-width="0.1" stroke-opacity="1"/><path d="M 74.69135802469144 -91.18265789307884 L 77.40740740740749 -91.18265789307884" stroke="#ffffff" stroke-width="0.1" stroke-opacity="1"/><path d="M 77.40740740740749 -91.18265789307884 L 76.04938271604946 -93.53482565644399" stroke="#ffffff" stroke-width="0.1" stroke-opacity="1"/><path d="M 76.04938271604946 -93.53482565644399 L 77.40740740740749 -95.88699341980913" stroke="#ffffff" stroke-width="0.1" stroke-opacity="1"/><path d="M 77.40740740740749 -95.88699341980913 L 80.12345679012354 -95.88699341980913" stroke="#ffffff" stroke-width="0.1" stroke-opacity="1"/><path d="M 80.12345679012354 -95.88699341980913 L 81.48148148148157 -93.53482565644399" stroke="#ffffff" stroke-width="0.1" stroke-opacity="1"/><path d="M 81.48148148148157 -93.53482565644399 L 82.83950617283959 -95.88699341980913" stroke="#ffffff" stroke-width="0.1" stroke-opacity="1"/><path d="M 82.83950617283959 -95.88699341980913 L 85.55555555555564 -95.88699341980913" stroke="#ffffff" stroke-width="0.1" stroke-opacity="1"/><path d="M 85.55555555555564 -95.88699341980913 L 84.19753086419762 -98.23916118317428" stroke="#ffffff" stroke-width="0.1" stroke-opacity="1"/><path d="M 84.19753086419762 -98.23916118317428 L 85.55555555555564 -100.59132894653942" stroke="#ffffff" stroke-width="0.1" stroke-opacity="1"/><path d="M 85.55555555555564 -100.59132894653942 L 82.83950617283959 -100.59132894653942" stroke="#ffffff" stroke-width="0.1" stroke-opacity="1"/><path d="M 82.83950617283959 -100.59132894653942 L 81.48148148148157 -102.94349670990457" stroke="#ffffff" stroke-width="0.1" stroke-opacity="1"/><path d="M 81.48148148148157 -102.94349670990457 L 82.83950617283959 -105.29566447326971" stroke="#ffffff" stroke-width="0.1" stroke-opacity="1"/><path d="M 82.83950617283959 -105.29566447326971 L 85.55555555555564 -105.29566447326971" stroke="#ffffff" stroke-width="0.1" stroke-opacity="1"/><path d="M 85.55555555555564 -105.29566447326971 L 84.19753086419762 -107.64783223663486" stroke="#ffffff" stroke-width="0.1" stroke-opacity="1"/><path d="M 84.19753086419762 -107.64783223663486 L 85.55555555555564 -110" stroke="#ffffff" stroke-width="0.1" stroke-opacity="1"/><path d="M 85.55555555555564 -110 L 88.2716049382717 -110" stroke="#ffffff" stroke-width="0.1" stroke-opacity="1"/><path d="M 88.2716049382717 -110 L 89.62962962962972 -107.64783223663486" stroke="#ffffff" stroke-width="0.1" stroke-opacity="1"/><path d="M 89.62962962962972 -107.64783223663486 L 90.98765432098774 -110" stroke="#ffffff" stroke-width="0.1" stroke-opacity="1"/><path d="M 90.98765432098774 -110 L 93.7037037037038 -110" stroke="#ffffff" stroke-width="0.1" stroke-opacity="1"/><path d="M 93.7037037037038 -110 L 95.06172839506182 -107.64783223663486" stroke="#ffffff" stroke-width="0.1" stroke-opacity="1"/><path d="M 95.06172839506182 -107.64783223663486 L 93.7037037037038 -105.29566447326971" stroke="#ffffff" stroke-width="0.1" stroke-opacity="1"/><path d="M 93.7037037037038 -105.29566447326971 L 96.41975308641985 -105.29566447326971" stroke="#ffffff" stroke-width="0.1" stroke-opacity="1"/><path d="M 96.41975308641985 -105.29566447326971 L 97.77777777777787 -102.94349670990457" stroke="#ffffff" stroke-width="0.1" stroke-opacity="1"/><path d="M 97.77777777777787 -102.94349670990457 L 99.1358024691359 -105.29566447326971" stroke="#ffffff" stroke-width="0.1" stroke-opacity="1"/><path d="M 99.1358024691359 -105.29566447326971 L 101.85185185185195 -105.29566447326971" stroke="#ffffff" stroke-width="0.1" stroke-opacity="1"/><path d="M 101.85185185185195 -105.29566447326971 L 100.49382716049392 -107.64783223663486" stroke="#ffffff" stroke-width="0.1" stroke-opacity="1"/><path d="M 100.49382716049392 -107.64783223663486 L 101.85185185185195 -110" stroke="#ffffff" stroke-width="0.1" stroke-opacity="1"/><path d="M 101.85185185185195 -110 L 104.567901234568 -110" stroke="#ffffff" stroke-width="0.1" stroke-opacity="1"/><path d="M 104.567901234568 -110 L 105.92592592592602 -107.64783223663486" stroke="#ffffff" stroke-width="0.1" stroke-opacity="1"/><path d="M 105.92592592592602 -107.64783223663486 L 107.28395061728405 -110" stroke="#ffffff" stroke-width="0.1" stroke-opacity="1"/><path d="M 107.28395061728405 -110 L 110.0000000000001 -110" stroke="#ffffff" stroke-width="0.1" stroke-opacity="1"/><use id="tat_0" fill="#ffff00" fill-opacity="0.2" style="visibility:visible" xlink:href="#def_tat" transform="translate(110.0000000000001,-110) rotate(-90) scale(0.5,0.5)"/></g>

  <script id="rom-0" type="application/javascript" xlink:href="rom.0.auxiliar.js"/>
  <script id="rom-1" type="application/javascript" xlink:href="rom.1.geral.js"/>
  <script id="rom-2" type="application/javascript" xlink:href="rom.2.listas.js"/>
  <script id="rom-3" type="application/javascript" xlink:href="rom.3.matematica.js"/>
  <script id="rom-4" type="application/javascript" xlink:href="rom.4.grafico-nao-tat.js"/>
  <script id="rom-5" type="application/javascript" xlink:href="rom.5.grafico-tat.js"/>
  <script id="rom-z" type="application/javascript" xlink:href="rom.z.boot.js"/><script xlink:href="teste/koch.svl" type="application/javascript"/>

</svg>
