<svg version="1.1" baseProfile="full" xmlns="http://www.w3.org/2000/svg" xmlns:xlink="http://www.w3.org/1999/xlink" xmlns:ev="http://www.w3.org/2001/xml-events" id="raiz" width="100%" height="100%" preserveAspectRatio="xMidYMid meet" viewBox="0 0 300 300">

<!--
  Scalable Vector Logo - SVL
  Arkanon <arkanon@lsd.org.br>
  v0.16 - 2014/03/02 (Sun) 22:06:40 (BRS)
-->

  <defs>
    <circle id="def_ponto" cx="0" cy="0" r=".5"/>
    <path id="def_tat" transform="translate(-8.5 -7.5)" fill-rule="evenodd" d="        M  2 1        v  1 h  1 v  1 h  1 v  1 h -1 v  4 h  1 v  1 h -1 v  1 h -1 v  1 h  2 v -1 h  2 v  1 h  1 v  1 h -1 v  2 h  1 v  1        h  2        v -1 h  1 v -2 h -1 v -1 h  1 v -1 h  2 v  1 h  2 v -1 h -1 v -1 h -1 v -1 h  1 v -4 h -1 v -1 h  1 v -1 h  1 v -1        h -2 v  2 h -1 v -1 h -2 v -1        h -2        v  1 h -2 v  1 h -1 v -2 h -2        M  8  7        v  1 h  1 v -1 h -1       "/>
  </defs>

  <g id="tela" transform="translate(150,150) scale(1,-1)">
    <rect id="fundo" width="300" height="300" x="-150" y="-150" fill="#000000" fill-opacity="1"/>
    <image id="logo" xlink:href="svl-logo.svg#layer1" width="1000" height="1000" transform="translate(-147,147) scale(0.08) scale(1,-1)" opacity="1" style="visibility:visible"/>
    <image id="validate" xlink:href="w3c-svg-1.1.svg#layer1" width="1000" height="1000" transform="scale(0.5) translate(214,-279) scale(1,-1)" opacity="1" style="visibility:visible"/>
    <a id="save" xlink:href="">
      <image id="floppy" xlink:href="save_as.svg" x="0" y="0" width="150" height="150" transform="scale(0.4) scale(1,-1)"/>
    </a>
  <path d="M 0 0 L 0 0" stroke="#ffffff" stroke-width="1" stroke-opacity="1"/><path d="M -110 -110 L -101.85185185185185 -110" stroke="#ffffff" stroke-width="0.1" stroke-opacity="1"/><path d="M -101.85185185185185 -110 L -97.77777777777777 -102.94349670990458" stroke="#ffffff" stroke-width="0.1" stroke-opacity="1"/><path d="M -97.77777777777777 -102.94349670990458 L -93.7037037037037 -110" stroke="#ffffff" stroke-width="0.1" stroke-opacity="1"/><path d="M -93.7037037037037 -110 L -85.55555555555554 -110" stroke="#ffffff" stroke-width="0.1" stroke-opacity="1"/><path d="M -85.55555555555554 -110 L -81.48148148148147 -102.94349670990458" stroke="#ffffff" stroke-width="0.1" stroke-opacity="1"/><path d="M -81.48148148148147 -102.94349670990458 L -85.55555555555554 -95.88699341980916" stroke="#ffffff" stroke-width="0.1" stroke-opacity="1"/><path d="M -85.55555555555554 -95.88699341980916 L -77.40740740740739 -95.88699341980916" stroke="#ffffff" stroke-width="0.1" stroke-opacity="1"/><path d="M -77.40740740740739 -95.88699341980916 L -73.33333333333331 -88.83049012971374" stroke="#ffffff" stroke-width="0.1" stroke-opacity="1"/><path d="M -73.33333333333331 -88.83049012971374 L -69.25925925925924 -95.88699341980916" stroke="#ffffff" stroke-width="0.1" stroke-opacity="1"/><path d="M -69.25925925925924 -95.88699341980916 L -61.11111111111109 -95.88699341980916" stroke="#ffffff" stroke-width="0.1" stroke-opacity="1"/><path d="M -61.11111111111109 -95.88699341980916 L -65.18518518518516 -102.94349670990458" stroke="#ffffff" stroke-width="0.1" stroke-opacity="1"/><path d="M -65.18518518518516 -102.94349670990458 L -61.111111111111086 -110" stroke="#ffffff" stroke-width="0.1" stroke-opacity="1"/><path d="M -61.111111111111086 -110 L -52.96296296296294 -110" stroke="#ffffff" stroke-width="0.1" stroke-opacity="1"/><path d="M -52.96296296296294 -110 L -48.888888888888864 -102.94349670990458" stroke="#ffffff" stroke-width="0.1" stroke-opacity="1"/><path d="M -48.888888888888864 -102.94349670990458 L -44.81481481481479 -110" stroke="#ffffff" stroke-width="0.1" stroke-opacity="1"/><path d="M -44.81481481481479 -110 L -36.66666666666664 -110" stroke="#ffffff" stroke-width="0.1" stroke-opacity="1"/><path d="M -36.66666666666664 -110 L -32.59259259259257 -102.94349670990458" stroke="#ffffff" stroke-width="0.1" stroke-opacity="1"/><path d="M -32.59259259259257 -102.94349670990458 L -36.666666666666636 -95.88699341980916" stroke="#ffffff" stroke-width="0.1" stroke-opacity="1"/><path d="M -36.666666666666636 -95.88699341980916 L -28.51851851851849 -95.88699341980916" stroke="#ffffff" stroke-width="0.1" stroke-opacity="1"/><path d="M -28.51851851851849 -95.88699341980916 L -24.444444444444414 -88.83049012971374" stroke="#ffffff" stroke-width="0.1" stroke-opacity="1"/><path d="M -24.444444444444414 -88.83049012971374 L -28.518518518518487 -81.77398683961832" stroke="#ffffff" stroke-width="0.1" stroke-opacity="1"/><path d="M -28.518518518518487 -81.77398683961832 L -36.666666666666636 -81.77398683961832" stroke="#ffffff" stroke-width="0.1" stroke-opacity="1"/><path d="M -36.666666666666636 -81.77398683961832 L -32.59259259259256 -74.7174835495229" stroke="#ffffff" stroke-width="0.1" stroke-opacity="1"/><path d="M -32.59259259259256 -74.7174835495229 L -36.66666666666663 -67.66098025942748" stroke="#ffffff" stroke-width="0.1" stroke-opacity="1"/><path d="M -36.66666666666663 -67.66098025942748 L -28.518518518518484 -67.66098025942748" stroke="#ffffff" stroke-width="0.1" stroke-opacity="1"/><path d="M -28.518518518518484 -67.66098025942748 L -24.444444444444407 -60.60447696933205" stroke="#ffffff" stroke-width="0.1" stroke-opacity="1"/><path d="M -24.444444444444407 -60.60447696933205 L -20.37037037037033 -67.66098025942748" stroke="#ffffff" stroke-width="0.1" stroke-opacity="1"/><path d="M -20.37037037037033 -67.66098025942748 L -12.222222222222184 -67.66098025942748" stroke="#ffffff" stroke-width="0.1" stroke-opacity="1"/><path d="M -12.222222222222184 -67.66098025942748 L -8.14814814814811 -60.60447696933205" stroke="#ffffff" stroke-width="0.1" stroke-opacity="1"/><path d="M -8.14814814814811 -60.60447696933205 L -12.222222222222182 -53.54797367923662" stroke="#ffffff" stroke-width="0.1" stroke-opacity="1"/><path d="M -12.222222222222182 -53.54797367923662 L -4.074074074074037 -53.54797367923662" stroke="#ffffff" stroke-width="0.1" stroke-opacity="1"/><path d="M -4.074074074074037 -53.54797367923662 L 3.730349362740526e-14 -46.49147038914119" stroke="#ffffff" stroke-width="0.1" stroke-opacity="1"/><path d="M 3.730349362740526e-14 -46.49147038914119 L 4.074074074074112 -53.54797367923662" stroke="#ffffff" stroke-width="0.1" stroke-opacity="1"/><path d="M 4.074074074074112 -53.54797367923662 L 12.222222222222259 -53.54797367923662" stroke="#ffffff" stroke-width="0.1" stroke-opacity="1"/><path d="M 12.222222222222259 -53.54797367923662 L 8.148148148148188 -60.60447696933205" stroke="#ffffff" stroke-width="0.1" stroke-opacity="1"/><path d="M 8.148148148148188 -60.60447696933205 L 12.222222222222262 -67.66098025942748" stroke="#ffffff" stroke-width="0.1" stroke-opacity="1"/><path d="M 12.222222222222262 -67.66098025942748 L 20.37037037037041 -67.66098025942748" stroke="#ffffff" stroke-width="0.1" stroke-opacity="1"/><path d="M 20.37037037037041 -67.66098025942748 L 24.444444444444485 -60.60447696933205" stroke="#ffffff" stroke-width="0.1" stroke-opacity="1"/><path d="M 24.444444444444485 -60.60447696933205 L 28.51851851851856 -67.66098025942748" stroke="#ffffff" stroke-width="0.1" stroke-opacity="1"/><path d="M 28.51851851851856 -67.66098025942748 L 36.66666666666671 -67.66098025942748" stroke="#ffffff" stroke-width="0.1" stroke-opacity="1"/><path d="M 36.66666666666671 -67.66098025942748 L 32.59259259259264 -74.7174835495229" stroke="#ffffff" stroke-width="0.1" stroke-opacity="1"/><path d="M 32.59259259259264 -74.7174835495229 L 36.666666666666714 -81.77398683961832" stroke="#ffffff" stroke-width="0.1" stroke-opacity="1"/><path d="M 36.666666666666714 -81.77398683961832 L 28.51851851851857 -81.77398683961832" stroke="#ffffff" stroke-width="0.1" stroke-opacity="1"/><path d="M 28.51851851851857 -81.77398683961832 L 24.444444444444496 -88.83049012971374" stroke="#ffffff" stroke-width="0.1" stroke-opacity="1"/><path d="M 24.444444444444496 -88.83049012971374 L 28.51851851851857 -95.88699341980916" stroke="#ffffff" stroke-width="0.1" stroke-opacity="1"/><path d="M 28.51851851851857 -95.88699341980916 L 36.666666666666714 -95.88699341980916" stroke="#ffffff" stroke-width="0.1" stroke-opacity="1"/><path d="M 36.666666666666714 -95.88699341980916 L 32.592592592592645 -102.94349670990458" stroke="#ffffff" stroke-width="0.1" stroke-opacity="1"/><path d="M 32.592592592592645 -102.94349670990458 L 36.66666666666672 -110" stroke="#ffffff" stroke-width="0.1" stroke-opacity="1"/><path d="M 36.66666666666672 -110 L 44.814814814814866 -110" stroke="#ffffff" stroke-width="0.1" stroke-opacity="1"/><path d="M 44.814814814814866 -110 L 48.88888888888894 -102.94349670990458" stroke="#ffffff" stroke-width="0.1" stroke-opacity="1"/><path d="M 48.88888888888894 -102.94349670990458 L 52.96296296296302 -110" stroke="#ffffff" stroke-width="0.1" stroke-opacity="1"/><path d="M 52.96296296296302 -110 L 61.111111111111164 -110" stroke="#ffffff" stroke-width="0.1" stroke-opacity="1"/><path d="M 61.111111111111164 -110 L 65.18518518518523 -102.94349670990458" stroke="#ffffff" stroke-width="0.1" stroke-opacity="1"/><path d="M 65.18518518518523 -102.94349670990458 L 61.111111111111164 -95.88699341980916" stroke="#ffffff" stroke-width="0.1" stroke-opacity="1"/><path d="M 61.111111111111164 -95.88699341980916 L 69.25925925925931 -95.88699341980916" stroke="#ffffff" stroke-width="0.1" stroke-opacity="1"/><path d="M 69.25925925925931 -95.88699341980916 L 73.33333333333339 -88.83049012971374" stroke="#ffffff" stroke-width="0.1" stroke-opacity="1"/><path d="M 73.33333333333339 -88.83049012971374 L 77.40740740740746 -95.88699341980916" stroke="#ffffff" stroke-width="0.1" stroke-opacity="1"/><path d="M 77.40740740740746 -95.88699341980916 L 85.55555555555561 -95.88699341980916" stroke="#ffffff" stroke-width="0.1" stroke-opacity="1"/><path d="M 85.55555555555561 -95.88699341980916 L 81.48148148148154 -102.94349670990458" stroke="#ffffff" stroke-width="0.1" stroke-opacity="1"/><path d="M 81.48148148148154 -102.94349670990458 L 85.55555555555561 -110" stroke="#ffffff" stroke-width="0.1" stroke-opacity="1"/><path d="M 85.55555555555561 -110 L 93.70370370370377 -110" stroke="#ffffff" stroke-width="0.1" stroke-opacity="1"/><path d="M 93.70370370370377 -110 L 97.77777777777784 -102.94349670990458" stroke="#ffffff" stroke-width="0.1" stroke-opacity="1"/><path d="M 97.77777777777784 -102.94349670990458 L 101.85185185185192 -110" stroke="#ffffff" stroke-width="0.1" stroke-opacity="1"/><path d="M 101.85185185185192 -110 L 110.00000000000007 -110" stroke="#ffffff" stroke-width="0.1" stroke-opacity="1"/><use id="tat_0" fill="#ffff00" fill-opacity="0.2" style="visibility:visible" xlink:href="#def_tat" transform="translate(110.00000000000007,-110) rotate(-90) scale(0.5,0.5)"/></g>

  <script id="rom-0" type="application/javascript" xlink:href="rom.0.auxiliar.js"/>
  <script id="rom-1" type="application/javascript" xlink:href="rom.1.geral.js"/>
  <script id="rom-2" type="application/javascript" xlink:href="rom.2.listas.js"/>
  <script id="rom-3" type="application/javascript" xlink:href="rom.3.matematica.js"/>
  <script id="rom-4" type="application/javascript" xlink:href="rom.4.grafico-nao-tat.js"/>
  <script id="rom-5" type="application/javascript" xlink:href="rom.5.grafico-tat.js"/>
  <script id="rom-z" type="application/javascript" xlink:href="rom.z.boot.js"/><script xlink:href="teste/koch.svl" type="application/javascript"/>

</svg>