<?xml version="1.0" encoding="ISO-8859-1" standalone="no"?>
<!DOCTYPE svg PUBLIC "-//W3C//DTD SVG 1.1//EN" "http://www.w3.org/Graphics/SVG/1.1/DTD/svg11.dtd">
<svg id="raiz_svg" width="100%" height="100%" preserveAspectRatio="xMidYMid meet" xmlns="http://www.w3.org/2000/svg" version="1.1" xmlns:xlink="http://www.w3.org/1999/xlink" viewBox="0 0 400 400">

  <defs>

    <rect id="def_fundo" x="-200" y="-200" width="400" height="400"/>

    <clipPath id="corte_fundo">
      <use xlink:href="#def_fundo"/>
    </clipPath>

    <path id="def_tat" transform="translate(-8.5, -7.5)" fill-rule="evenodd" d="        M  2 1        v  1 h  1 v  1 h  1 v  1 h -1 v  4 h  1 v  1 h -1 v  1 h -1 v  1 h  2 v -1 h  2 v  1 h  1 v  1 h -1 v  2 h  1 v  1        h  2        v -1 h  1 v -2 h -1 v -1 h  1 v -1 h  2 v  1 h  2 v -1 h -1 v -1 h -1 v -1 h  1 v -4 h -1 v -1 h  1 v -1 h  1 v -1        h -2 v  2 h -1 v -1 h -2 v -1        h -2        v  1 h -2 v  1 h -1 v -2 h -2        M  8  7        v  1 h  1 v -1 h -1       "/>

    <circle id="def_ponto" cx="0" cy="0" r=".5"/>

  </defs>

  <g id="tela" clip-path="url(#corte_fundo)" transform="translate(200, 200) scale(1, -1)">
    <use id="fundo" xlink:href="#def_fundo" fill="#000000" fill-opacity="1"/>
    <a xlink:href="http://svl.lsd.org.br/current/" target="_blank"><use id="logo" transform="translate(-197, 197) scale(0.08) scale(1, -1)" opacity="1" style="visibility: visible;" xlink:href="http://svl.lsd.org.br:8080/appsweb/svl/.h/image/svl/svl-logo.svg#layer1"/></a>
    <use id="validate" xlink:href="http://svl.lsd.org.br:8080/APACHE/image/button/w3c-svg-1.1.svg#layer1" transform="scale(0.5) translate(214,-279) scale(1,-1)" opacity="1" style="visibility:visible"/>
  <path d="M 0 0 L 0 0" stroke="#ffffff" stroke-width="1" stroke-opacity="1"/><path d="M 0 0 L 0 0" stroke="#ffffff" stroke-width="1" stroke-opacity="1"/><path d="M -150 0 L 150 0" stroke="#00ffff" stroke-width="0.5" stroke-opacity="1"/><path d="M 0 -150 L 0 150" stroke="#00ffff" stroke-width="0.5" stroke-opacity="1"/><path d="M 50 0 L 100 0" stroke="#0000ff" stroke-width="3" stroke-opacity="0.5"/><path d="M 0 50 L 0 100" stroke="#0000ff" stroke-width="3" stroke-opacity="0.5"/><path d="M 0 0 L 60 60" stroke="#ffffff" stroke-width="1" stroke-opacity="1"/><path d="M 60 60 L 60 90" stroke="#ffffff" stroke-width="1" stroke-opacity="1"/><path d="M 60 90 L 90 90" stroke="#ffffff" stroke-width="1" stroke-opacity="1"/><path d="M 90 90 L 90 60" stroke="#ffffff" stroke-width="1" stroke-opacity="1"/><path d="M 90 60 L 60 59.99999999999999" stroke="#ffffff" stroke-width="1" stroke-opacity="1"/><use id="tat_0" fill="#ff0000" fill-opacity="0.5" style="visibility: visible;" xlink:href="#def_tat" transform="translate(60, 60) rotate(0) scale(1)"/></g>

</svg>
