<?xml version="1.0" encoding="ISO-8859-1" standalone="no"?>
<!DOCTYPE svg PUBLIC "-//W3C//DTD SVG 1.1//EN" "http://www.w3.org/Graphics/SVG/1.1/DTD/svg11.dtd">
<svg id="raiz_svg" width="100%" height="100%" preserveAspectRatio="xMidYMid meet" xmlns="http://www.w3.org/2000/svg" version="1.1" xmlns:xlink="http://www.w3.org/1999/xlink" viewBox="0 0 300 300">

  <defs>

    <rect id="def_fundo" x="-150" y="-150" width="300" height="300"/>

    <clipPath id="corte_fundo">
      <use xlink:href="#def_fundo"/>
    </clipPath>

    <path id="def_tat" transform="translate(-8.5, -7.5)" fill-rule="evenodd" d="        M  2 1        v  1 h  1 v  1 h  1 v  1 h -1 v  4 h  1 v  1 h -1 v  1 h -1 v  1 h  2 v -1 h  2 v  1 h  1 v  1 h -1 v  2 h  1 v  1        h  2        v -1 h  1 v -2 h -1 v -1 h  1 v -1 h  2 v  1 h  2 v -1 h -1 v -1 h -1 v -1 h  1 v -4 h -1 v -1 h  1 v -1 h  1 v -1        h -2 v  2 h -1 v -1 h -2 v -1        h -2        v  1 h -2 v  1 h -1 v -2 h -2        M  8  7        v  1 h  1 v -1 h -1       "/>

    <circle id="def_ponto" cx="0" cy="0" r=".5"/>

  </defs>

  <g id="tela" clip-path="url(#corte_fundo)" transform="translate(150, 150) scale(1, -1)">
    <use id="fundo" xlink:href="#def_fundo" fill="#000000" fill-opacity="1"/>
    <a xlink:href="http://svl.lsd.org.br/current/" target="_blank"><use id="logo" transform="translate(-147, 147) scale(0.08) scale(1, -1)" opacity="1" style="visibility: visible;" xlink:href="http://svl.lsd.org.br:8080/appsweb/svl/.h/image/svl/svl-logo.svg#layer1"/></a>
    <use id="validate" xlink:href="http://svl.lsd.org.br:8080/APACHE/image/button/w3c-svg-1.1.svg#layer1" transform="scale(0.5) translate(214,-279) scale(1,-1)" opacity="1" style="visibility:visible"/>
  <path d="M 0 0 L 0 0" stroke="#ffffff" stroke-width="1" stroke-opacity="1"/><path d="M 0 0 L 0 0" stroke="#ffffff" stroke-width="1" stroke-opacity="1"/><path d="M -150 0 L 150 0" stroke="#00ffff" stroke-width="0.5" stroke-opacity="1"/><path d="M 0 -150 L 0 150" stroke="#00ffff" stroke-width="0.5" stroke-opacity="1"/><path d="M 0 0 L 24.999999999999996 43.30127018922194" stroke="#ff0000" stroke-width="1" stroke-opacity="1"/><path d="M 24.999999999999996 43.30127018922194 L 68.30127018922194 18.30127018922195" stroke="#ff0000" stroke-width="1" stroke-opacity="1"/><path d="M 68.30127018922194 18.30127018922195 L 43.30127018922193 -24.999999999999982" stroke="#ff0000" stroke-width="1" stroke-opacity="1"/><path d="M 43.30127018922193 -24.999999999999982 L 0 2.4868995751603507e-14" stroke="#ff0000" stroke-width="1" stroke-opacity="1"/><path d="M 0 2.4868995751603507e-14 L 35.35533905932737 35.355339059327406" stroke="#ff0000" stroke-width="1" stroke-opacity="1"/><path d="M 35.35533905932737 35.355339059327406 L 70.71067811865476 3.552713678800501e-14" stroke="#ff0000" stroke-width="1" stroke-opacity="1"/><path d="M 70.71067811865476 3.552713678800501e-14 L 35.355339059327385 -35.35533905932735" stroke="#ff0000" stroke-width="1" stroke-opacity="1"/><path d="M 35.355339059327385 -35.35533905932735 L 0 2.1316282072803006e-14" stroke="#ff0000" stroke-width="1" stroke-opacity="1"/><path d="M 0 2.1316282072803006e-14 L 43.30127018922193 25.00000000000003" stroke="#ff0000" stroke-width="1" stroke-opacity="1"/><path d="M 43.30127018922193 25.00000000000003 L 68.30127018922192 -18.30127018922191" stroke="#ff0000" stroke-width="1" stroke-opacity="1"/><path d="M 68.30127018922192 -18.30127018922191 L 25.000000000000007 -43.30127018922193" stroke="#ff0000" stroke-width="1" stroke-opacity="1"/><path d="M 25.000000000000007 -43.30127018922193 L -1.4210854715202004e-14 -1.4210854715202004e-14" stroke="#ff0000" stroke-width="1" stroke-opacity="1"/><path d="M -1.4210854715202004e-14 -1.4210854715202004e-14 L 48.2962913144534 12.940952255126023" stroke="#ff0000" stroke-width="1" stroke-opacity="1"/><path d="M 48.2962913144534 12.940952255126023 L 61.23724356957945 -35.35533905932739" stroke="#ff0000" stroke-width="1" stroke-opacity="1"/><path d="M 61.23724356957945 -35.35533905932739 L 12.940952255126035 -48.29629131445343" stroke="#ff0000" stroke-width="1" stroke-opacity="1"/><path d="M 12.940952255126035 -48.29629131445343 L 1.7763568394002505e-15 -1.4210854715202004e-14" stroke="#ff0000" stroke-width="1" stroke-opacity="1"/><path d="M 1.7763568394002505e-15 -1.4210854715202004e-14 L 50 -1.114923771733362e-14" stroke="#ff0000" stroke-width="1" stroke-opacity="1"/><path d="M 50 -1.114923771733362e-14 L 50.00000000000001 -50.000000000000014" stroke="#ff0000" stroke-width="1" stroke-opacity="1"/><path d="M 50.00000000000001 -50.000000000000014 L 7.105427357601002e-15 -50.00000000000002" stroke="#ff0000" stroke-width="1" stroke-opacity="1"/><path d="M 7.105427357601002e-15 -50.00000000000002 L 7.105427357601002e-15 -2.1316282072803006e-14" stroke="#ff0000" stroke-width="1" stroke-opacity="1"/><path d="M 7.105427357601002e-15 -2.1316282072803006e-14 L 48.29629131445342 -12.940952255126064" stroke="#ff0000" stroke-width="1" stroke-opacity="1"/><path d="M 48.29629131445342 -12.940952255126064 L 35.35533905932738 -61.237243569579476" stroke="#ff0000" stroke-width="1" stroke-opacity="1"/><path d="M 35.35533905932738 -61.237243569579476 L -12.940952255126042 -48.29629131445346" stroke="#ff0000" stroke-width="1" stroke-opacity="1"/><path d="M -12.940952255126042 -48.29629131445346 L -5.329070518200751e-15 -4.973799150320701e-14" stroke="#ff0000" stroke-width="1" stroke-opacity="1"/><path d="M -5.329070518200751e-15 -4.973799150320701e-14 L 43.30127018922193 -25.00000000000004" stroke="#ff0000" stroke-width="1" stroke-opacity="1"/><path d="M 43.30127018922193 -25.00000000000004 L 18.301270189221924 -68.30127018922197" stroke="#ff0000" stroke-width="1" stroke-opacity="1"/><path d="M 18.301270189221924 -68.30127018922197 L -25.000000000000007 -43.30127018922196" stroke="#ff0000" stroke-width="1" stroke-opacity="1"/><path d="M -25.000000000000007 -43.30127018922196 L -1.0658141036401503e-14 -2.1316282072803006e-14" stroke="#ff0000" stroke-width="1" stroke-opacity="1"/><path d="M -1.0658141036401503e-14 -2.1316282072803006e-14 L 35.35533905932736 -35.35533905932739" stroke="#ff0000" stroke-width="1" stroke-opacity="1"/><path d="M 35.35533905932736 -35.35533905932739 L -7.105427357601002e-15 -70.71067811865478" stroke="#ff0000" stroke-width="1" stroke-opacity="1"/><path d="M -7.105427357601002e-15 -70.71067811865478 L -35.35533905932739 -35.35533905932741" stroke="#ff0000" stroke-width="1" stroke-opacity="1"/><path d="M -35.35533905932739 -35.35533905932741 L -2.1316282072803006e-14 -3.552713678800501e-14" stroke="#ff0000" stroke-width="1" stroke-opacity="1"/><path d="M -2.1316282072803006e-14 -3.552713678800501e-14 L 24.999999999999975 -43.301270189221974" stroke="#ff0000" stroke-width="1" stroke-opacity="1"/><path d="M 24.999999999999975 -43.301270189221974 L -18.301270189221942 -68.301270189222" stroke="#ff0000" stroke-width="1" stroke-opacity="1"/><path d="M -18.301270189221942 -68.301270189222 L -43.30127018922197 -25.000000000000078" stroke="#ff0000" stroke-width="1" stroke-opacity="1"/><path d="M -43.30127018922197 -25.000000000000078 L -3.552713678800501e-14 -7.105427357601002e-14" stroke="#ff0000" stroke-width="1" stroke-opacity="1"/><path d="M -3.552713678800501e-14 -7.105427357601002e-14 L 12.940952255126016 -48.296291314453484" stroke="#ff0000" stroke-width="1" stroke-opacity="1"/><path d="M 12.940952255126016 -48.296291314453484 L -35.3553390593274 -61.23724356957952" stroke="#ff0000" stroke-width="1" stroke-opacity="1"/><path d="M -35.3553390593274 -61.23724356957952 L -48.296291314453434 -12.940952255126106" stroke="#ff0000" stroke-width="1" stroke-opacity="1"/><path d="M -48.296291314453434 -12.940952255126106 L -2.1316282072803006e-14 -6.927791673660977e-14" stroke="#ff0000" stroke-width="1" stroke-opacity="1"/><path d="M -2.1316282072803006e-14 -6.927791673660977e-14 L -1.519304807706624e-14 -50.00000000000007" stroke="#ff0000" stroke-width="1" stroke-opacity="1"/><path d="M -1.519304807706624e-14 -50.00000000000007 L -50.000000000000014 -50.00000000000008" stroke="#ff0000" stroke-width="1" stroke-opacity="1"/><path d="M -50.000000000000014 -50.00000000000008 L -50.000000000000014 -7.815970093361102e-14" stroke="#ff0000" stroke-width="1" stroke-opacity="1"/><path d="M -50.000000000000014 -7.815970093361102e-14 L -1.4210854715202004e-14 -7.509808393574264e-14" stroke="#ff0000" stroke-width="1" stroke-opacity="1"/><path d="M -1.4210854715202004e-14 -7.509808393574264e-14 L -12.940952255126055 -48.29629131445349" stroke="#ff0000" stroke-width="1" stroke-opacity="1"/><path d="M -12.940952255126055 -48.29629131445349 L -61.237243569579476 -35.35533905932748" stroke="#ff0000" stroke-width="1" stroke-opacity="1"/><path d="M -61.237243569579476 -35.35533905932748 L -48.29629131445344 12.940952255125936" stroke="#ff0000" stroke-width="1" stroke-opacity="1"/><path d="M -48.29629131445344 12.940952255125936 L -2.842170943040401e-14 -1.0658141036401503e-13" stroke="#ff0000" stroke-width="1" stroke-opacity="1"/><path d="M -2.842170943040401e-14 -1.0658141036401503e-13 L -25.000000000000036 -43.30127018922204" stroke="#ff0000" stroke-width="1" stroke-opacity="1"/><path d="M -25.000000000000036 -43.30127018922204 L -68.30127018922197 -18.30127018922203" stroke="#ff0000" stroke-width="1" stroke-opacity="1"/><path d="M -68.30127018922197 -18.30127018922203 L -43.30127018922197 24.999999999999908" stroke="#ff0000" stroke-width="1" stroke-opacity="1"/><path d="M -43.30127018922197 24.999999999999908 L -2.842170943040401e-14 -8.171241461241152e-14" stroke="#ff0000" stroke-width="1" stroke-opacity="1"/><path d="M -2.842170943040401e-14 -8.171241461241152e-14 L -35.3553390593274 -35.35533905932746" stroke="#ff0000" stroke-width="1" stroke-opacity="1"/><path d="M -35.3553390593274 -35.35533905932746 L -70.71067811865478 -9.237055564881302e-14" stroke="#ff0000" stroke-width="1" stroke-opacity="1"/><path d="M -70.71067811865478 -9.237055564881302e-14 L -35.35533905932741 35.355339059327285" stroke="#ff0000" stroke-width="1" stroke-opacity="1"/><path d="M -35.35533905932741 35.355339059327285 L -3.552713678800501e-14 -8.526512829121202e-14" stroke="#ff0000" stroke-width="1" stroke-opacity="1"/><path d="M -3.552713678800501e-14 -8.526512829121202e-14 L -43.30127018922195 -25.000000000000107" stroke="#ff0000" stroke-width="1" stroke-opacity="1"/><path d="M -43.30127018922195 -25.000000000000107 L -68.30127018922198 18.30127018922181" stroke="#ff0000" stroke-width="1" stroke-opacity="1"/><path d="M -68.30127018922198 18.30127018922181 L -25.00000000000005 43.30127018922182" stroke="#ff0000" stroke-width="1" stroke-opacity="1"/><path d="M -25.00000000000005 43.30127018922182 L -5.3290705182007514e-14 -1.2079226507921703e-13" stroke="#ff0000" stroke-width="1" stroke-opacity="1"/><path d="M -5.3290705182007514e-14 -1.2079226507921703e-13 L -48.29629131445347 -12.940952255126152" stroke="#ff0000" stroke-width="1" stroke-opacity="1"/><path d="M -48.29629131445347 -12.940952255126152 L -61.237243569579505 35.355339059327264" stroke="#ff0000" stroke-width="1" stroke-opacity="1"/><path d="M -61.237243569579505 35.355339059327264 L -12.940952255126092 48.2962913144533" stroke="#ff0000" stroke-width="1" stroke-opacity="1"/><path d="M -12.940952255126092 48.2962913144533 L -4.085620730620576e-14 -1.1368683772161603e-13" stroke="#ff0000" stroke-width="1" stroke-opacity="1"/><path d="M -4.085620730620576e-14 -1.1368683772161603e-13 L -50.00000000000004 -1.228716887152212e-13" stroke="#ff0000" stroke-width="1" stroke-opacity="1"/><path d="M -50.00000000000004 -1.228716887152212e-13 L -50.00000000000004 49.99999999999988" stroke="#ff0000" stroke-width="1" stroke-opacity="1"/><path d="M -50.00000000000004 49.99999999999988 L -4.263256414560601e-14 49.99999999999988" stroke="#ff0000" stroke-width="1" stroke-opacity="1"/><path d="M -4.263256414560601e-14 49.99999999999988 L -3.650933014986925e-14 -1.2079226507921703e-13" stroke="#ff0000" stroke-width="1" stroke-opacity="1"/><path d="M -3.650933014986925e-14 -1.2079226507921703e-13 L -48.296291314453455 12.940952255125893" stroke="#ff0000" stroke-width="1" stroke-opacity="1"/><path d="M -48.296291314453455 12.940952255125893 L -35.35533905932742 61.237243569579306" stroke="#ff0000" stroke-width="1" stroke-opacity="1"/><path d="M -35.35533905932742 61.237243569579306 L 12.940952255125993 48.29629131445326" stroke="#ff0000" stroke-width="1" stroke-opacity="1"/><path d="M 12.940952255125993 48.29629131445326 L -4.796163466380676e-14 -1.4921397450962104e-13" stroke="#ff0000" stroke-width="1" stroke-opacity="1"/><path d="M -4.796163466380676e-14 -1.4921397450962104e-13 L -43.30127018922198 24.999999999999858" stroke="#ff0000" stroke-width="1" stroke-opacity="1"/><path d="M -43.30127018922198 24.999999999999858 L -18.301270189221984 68.3012701892218" stroke="#ff0000" stroke-width="1" stroke-opacity="1"/><path d="M -18.301270189221984 68.3012701892218 L 24.999999999999954 43.30127018922181" stroke="#ff0000" stroke-width="1" stroke-opacity="1"/><path d="M 24.999999999999954 43.30127018922181 L -5.3290705182007514e-14 -1.2079226507921703e-13" stroke="#ff0000" stroke-width="1" stroke-opacity="1"/><path d="M -5.3290705182007514e-14 -1.2079226507921703e-13 L -35.355339059327434 35.35533905932725" stroke="#ff0000" stroke-width="1" stroke-opacity="1"/><path d="M -35.355339059327434 35.35533905932725 L -6.394884621840902e-14 70.71067811865463" stroke="#ff0000" stroke-width="1" stroke-opacity="1"/><path d="M -6.394884621840902e-14 70.71067811865463 L 35.355339059327314 35.35533905932726" stroke="#ff0000" stroke-width="1" stroke-opacity="1"/><path d="M 35.355339059327314 35.35533905932726 L -5.684341886080802e-14 -1.2789769243681803e-13" stroke="#ff0000" stroke-width="1" stroke-opacity="1"/><path d="M -5.684341886080802e-14 -1.2789769243681803e-13 L -25.000000000000078 43.30127018922179" stroke="#ff0000" stroke-width="1" stroke-opacity="1"/><path d="M -25.000000000000078 43.30127018922179 L 18.301270189221853 68.3012701892218" stroke="#ff0000" stroke-width="1" stroke-opacity="1"/><path d="M 18.301270189221853 68.3012701892218 L 43.30127018922185 24.999999999999858" stroke="#ff0000" stroke-width="1" stroke-opacity="1"/><path d="M 43.30127018922185 24.999999999999858 L -6.394884621840902e-14 -1.6342482922482304e-13" stroke="#ff0000" stroke-width="1" stroke-opacity="1"/><path d="M -6.394884621840902e-14 -1.6342482922482304e-13 L -12.940952255126097 48.29629131445325" stroke="#ff0000" stroke-width="1" stroke-opacity="1"/><path d="M -12.940952255126097 48.29629131445325 L 35.355339059327314 61.237243569579284" stroke="#ff0000" stroke-width="1" stroke-opacity="1"/><path d="M 35.355339059327314 61.237243569579284 L 48.29629131445336 12.940952255125872" stroke="#ff0000" stroke-width="1" stroke-opacity="1"/><path d="M 48.29629131445336 12.940952255125872 L -4.973799150320701e-14 -1.5987211554602254e-13" stroke="#ff0000" stroke-width="1" stroke-opacity="1"/><path d="M -4.973799150320701e-14 -1.5987211554602254e-13 L -4.973799150320701e-14 49.999999999999844" stroke="#ff0000" stroke-width="1" stroke-opacity="1"/><path d="M -4.973799150320701e-14 49.999999999999844 L 49.99999999999995 49.999999999999844" stroke="#ff0000" stroke-width="1" stroke-opacity="1"/><path d="M 49.99999999999995 49.999999999999844 L 49.99999999999996 -1.5631940186722204e-13" stroke="#ff0000" stroke-width="1" stroke-opacity="1"/><path d="M 49.99999999999996 -1.5631940186722204e-13 L -4.263256414560601e-14 -1.655042528608272e-13" stroke="#ff0000" stroke-width="1" stroke-opacity="1"/><path d="M -4.263256414560601e-14 -1.655042528608272e-13 L 12.940952255125994 48.29629131445325" stroke="#ff0000" stroke-width="1" stroke-opacity="1"/><path d="M 12.940952255125994 48.29629131445325 L 61.237243569579405 35.35533905932721" stroke="#ff0000" stroke-width="1" stroke-opacity="1"/><path d="M 61.237243569579405 35.35533905932721 L 48.29629131445336 -12.940952255126206" stroke="#ff0000" stroke-width="1" stroke-opacity="1"/><path d="M 48.29629131445336 -12.940952255126206 L -5.684341886080802e-14 -1.9184653865522705e-13" stroke="#ff0000" stroke-width="1" stroke-opacity="1"/><path d="M -5.684341886080802e-14 -1.9184653865522705e-13 L -5.684341886080802e-14 134.9999999999998" stroke="#007f00" stroke-width="3" stroke-opacity="0.5"/><use id="tat_0" fill="#ffffff" fill-opacity="1" style="visibility: visible;" xlink:href="#def_tat" transform="translate(-5.68434e-14, 135) rotate(0) scale(1)"/></g>

</svg>
