<?xml version="1.0" encoding="ISO-8859-1" standalone="no"?>
<!DOCTYPE svg PUBLIC "-//W3C//DTD SVG 1.1//EN" "http://www.w3.org/Graphics/SVG/1.1/DTD/svg11.dtd">
<svg id="raiz_svg" width="100%" height="100%" preserveAspectRatio="xMidYMid meet" xmlns="http://www.w3.org/2000/svg" version="1.1" xmlns:xlink="http://www.w3.org/1999/xlink" viewBox="0 0 300 300">

  <defs>

    <rect id="def_fundo" x="-150" y="-150" width="300" height="300"/>

    <clipPath id="corte_fundo">
      <use xlink:href="#def_fundo"/>
    </clipPath>

    <path id="def_tat" transform="translate(-8.5, -7.5)" fill-rule="evenodd" d="        M  2 1        v  1 h  1 v  1 h  1 v  1 h -1 v  4 h  1 v  1 h -1 v  1 h -1 v  1 h  2 v -1 h  2 v  1 h  1 v  1 h -1 v  2 h  1 v  1        h  2        v -1 h  1 v -2 h -1 v -1 h  1 v -1 h  2 v  1 h  2 v -1 h -1 v -1 h -1 v -1 h  1 v -4 h -1 v -1 h  1 v -1 h  1 v -1        h -2 v  2 h -1 v -1 h -2 v -1        h -2        v  1 h -2 v  1 h -1 v -2 h -2        M  8  7        v  1 h  1 v -1 h -1       "/>

    <circle id="def_ponto" cx="0" cy="0" r=".5"/>

  </defs>

  <g id="tela" clip-path="url(#corte_fundo)" transform="translate(150, 150) scale(1, -1)">
    <use id="fundo" xlink:href="#def_fundo" fill="#7f0000" fill-opacity="1"/>
    <a xlink:href="http://svl.lsd.org.br/current/" target="_blank"><use id="logo" transform="translate(-147, 147) scale(0.08) scale(1, -1)" opacity="1" style="visibility: visible;" xlink:href="http://svl.lsd.org.br:8080/appsweb/svl/.h/image/svl/svl-logo.svg#layer1"/></a>
    <use id="validate" xlink:href="http://svl.lsd.org.br:8080/APACHE/image/button/w3c-svg-1.1.svg#layer1" transform="scale(0.5) translate(214,-279) scale(1,-1)" opacity="1" style="visibility:visible"/>
  <path d="M 0 0 L 0 0" stroke="#ffffff" stroke-width="1" stroke-opacity="1"/><path d="M 0 0 L 0 0" stroke="#ffffff" stroke-width="1" stroke-opacity="1"/><path d="M -150 0 L 150 0" stroke="#00ffff" stroke-width="0.5" stroke-opacity="1"/><path d="M 0 -150 L 0 150" stroke="#00ffff" stroke-width="0.5" stroke-opacity="1"/><path d="M 0 0 L 19.283628290596184 -22.981333293569335" stroke="#ffffff" stroke-width="1" stroke-opacity="0.3"/><use transform="translate(19.2836, -22.9813) rotate(-212) scale(1.17778)" stroke="#0000ff" stroke-width="0" stroke-opacity="1" fill="#0000ff" fill-opacity="1" style="visibility: visible;" xlink:href="#def_tat"/><path d="M 19.283628290596184 -22.981333293569335 L 3.38605036360004 -48.42277617826212" stroke="#ffffff" stroke-width="1" stroke-opacity="0.3"/><use transform="translate(3.38605, -48.4228) rotate(-284) scale(1.57778)" stroke="#0000ff" stroke-width="0" stroke-opacity="1" fill="#0000ff" fill-opacity="1" style="visibility: visible;" xlink:href="#def_tat"/><path d="M 3.38605036360004 -48.42277617826212 L -25.722821424679857 -41.1651193102721" stroke="#ffffff" stroke-width="1" stroke-opacity="0.3"/><use transform="translate(-25.7228, -41.1651) rotate(-356) scale(1.97778)" stroke="#0000ff" stroke-width="0" stroke-opacity="1" fill="#0000ff" fill-opacity="1" style="visibility: visible;" xlink:href="#def_tat"/><path d="M -25.722821424679857 -41.1651193102721 L -27.815515637003628 -11.23819780247737" stroke="#ffffff" stroke-width="1" stroke-opacity="0.3"/><use transform="translate(-27.8155, -11.2382) rotate(-68) scale(0.377778)" stroke="#0000ff" stroke-width="0" stroke-opacity="1" fill="#0000ff" fill-opacity="1" style="visibility: visible;" xlink:href="#def_tat"/><path d="M -27.815515637003628 -11.23819780247737 L -7.105427357601002e-15 -1.0658141036401503e-14" stroke="#ffffff" stroke-width="1" stroke-opacity="0.3"/><use transform="translate(-7.10543e-15, -1.06581e-14) rotate(-140) scale(0.777778)" stroke="#0000ff" stroke-width="0" stroke-opacity="1" fill="#0000ff" fill-opacity="1" style="visibility: visible;" xlink:href="#def_tat"/><path d="M -7.105427357601002e-15 -1.0658141036401503e-14 L -7.105427357601002e-15 49.999999999999986" stroke="#7f0000" stroke-width="1" stroke-opacity="1"/><use id="tat_0" fill="#ffffff" fill-opacity="0.3" style="visibility: visible;" xlink:href="#def_tat" transform="translate(-7.10543e-15, 50) rotate(0) scale(1)"/></g>

</svg>
