<?xml version="1.0" encoding="ISO-8859-1" standalone="no"?>
<!DOCTYPE svg PUBLIC "-//W3C//DTD SVG 1.1//EN" "http://www.w3.org/Graphics/SVG/1.1/DTD/svg11.dtd">
<svg id="raiz_svg" width="100%" height="100%" preserveAspectRatio="xMidYMid meet" xmlns="http://www.w3.org/2000/svg" version="1.1" xmlns:xlink="http://www.w3.org/1999/xlink" viewBox="0 0 500 300">

  <defs>

    <rect id="def_fundo" x="-250" y="-150" width="500" height="300"/>

    <clipPath id="corte_fundo">
      <use xlink:href="#def_fundo"/>
    </clipPath>

    <path id="def_tat" transform="translate(-8.5, -7.5)" fill-rule="evenodd" d="        M  2 1        v  1 h  1 v  1 h  1 v  1 h -1 v  4 h  1 v  1 h -1 v  1 h -1 v  1 h  2 v -1 h  2 v  1 h  1 v  1 h -1 v  2 h  1 v  1        h  2        v -1 h  1 v -2 h -1 v -1 h  1 v -1 h  2 v  1 h  2 v -1 h -1 v -1 h -1 v -1 h  1 v -4 h -1 v -1 h  1 v -1 h  1 v -1        h -2 v  2 h -1 v -1 h -2 v -1        h -2        v  1 h -2 v  1 h -1 v -2 h -2        M  8  7        v  1 h  1 v -1 h -1       "/>

    <circle id="def_ponto" cx="0" cy="0" r=".5"/>

  </defs>

  <g id="tela" clip-path="url(#corte_fundo)" transform="translate(250, 150) scale(1, -1)">
    <use id="fundo" xlink:href="#def_fundo" fill="#000000" fill-opacity="1"/>
    <a xlink:href="http://svl.lsd.org.br/current/" target="_blank"><use id="logo" transform="translate(-247, 147) scale(0.08) scale(1, -1)" opacity="1" style="visibility: visible;" xlink:href="http://svl.lsd.org.br:8080/appsweb/svl/.h/image/svl/svl-logo.svg#layer1"/></a>
    <use id="validate" xlink:href="http://svl.lsd.org.br:8080/APACHE/image/button/w3c-svg-1.1.svg#layer1" transform="scale(0.5) translate(214,-279) scale(1,-1)" opacity="1" style="visibility:visible"/>
  <path d="M 0 0 L 0 0" stroke="#ffffff" stroke-width="1" stroke-opacity="1"/><path d="M 0 0 L 0 0" stroke="#ffffff" stroke-width="1" stroke-opacity="1"/><path d="M -200 50 L -202.3424262387375 100.40270409048674" stroke="#ff0000" stroke-width="0.2" stroke-opacity="1"/><path d="M -202.3424262387375 100.40270409048674 L -60.05595725304718 105.7876497820421" stroke="#ff0000" stroke-width="0.2" stroke-opacity="1"/><path d="M -60.05595725304718 105.7876497820421 L -59.477156942759876 63.774587337990866" stroke="#ff0000" stroke-width="0.2" stroke-opacity="1"/><path d="M -59.477156942759876 63.774587337990866 L -200 49.99999999999997" stroke="#ff0000" stroke-width="0.2" stroke-opacity="1"/><path d="M -200 49.99999999999997 L -202.3424262387375 100.40270409048671" stroke="#ff0000" stroke-width="0.2" stroke-opacity="1"/><path d="M -202.3424262387375 100.40270409048671 L -174.20438959503267 72.8720524548937" stroke="#ff0000" stroke-width="0.2" stroke-opacity="1"/><path d="M -174.20438959503267 72.8720524548937 L -33.02596193191659 83.17926656103117" stroke="#ff0000" stroke-width="0.2" stroke-opacity="1"/><path d="M -33.02596193191659 83.17926656103117 L -60.05595725304718 105.7876497820421" stroke="#ff0000" stroke-width="0.2" stroke-opacity="1"/><path d="M -60.05595725304718 105.7876497820421 L -202.3424262387375 100.40270409048672" stroke="#ff0000" stroke-width="0.2" stroke-opacity="1"/><path d="M -202.3424262387375 100.40270409048672 L -174.2043895950327 72.87205245489373" stroke="#ff0000" stroke-width="0.2" stroke-opacity="1"/><path d="M -174.2043895950327 72.87205245489373 L -199.99999999999997 49.99999999999997" stroke="#ff0000" stroke-width="0.2" stroke-opacity="1"/><path d="M -199.99999999999997 49.99999999999997 L -59.47715694275985 63.77458733799085" stroke="#ff0000" stroke-width="0.2" stroke-opacity="1"/><path d="M -59.47715694275985 63.77458733799085 L -33.025961931916584 83.17926656103117" stroke="#ff0000" stroke-width="0.2" stroke-opacity="1"/><path d="M -33.025961931916584 83.17926656103117 L -174.2043895950327 72.87205245489375" stroke="#ff0000" stroke-width="0.2" stroke-opacity="1"/><path d="M -174.2043895950327 72.87205245489375 L -199.99999999999997 49.999999999999986" stroke="#ff0000" stroke-width="0.2" stroke-opacity="1"/><path d="M 50 50 L 50.58560655968437 100.40270409048674" stroke="#0000ff" stroke-width="0.2" stroke-opacity="1"/><path d="M 50.58560655968437 100.40270409048674 L 150.0989774636173 105.7876497820421" stroke="#0000ff" stroke-width="0.2" stroke-opacity="1"/><path d="M 150.0989774636173 105.7876497820421 L 148.6523710201684 63.774587337990866" stroke="#0000ff" stroke-width="0.2" stroke-opacity="1"/><path d="M 148.6523710201684 63.774587337990866 L 50 49.99999999999997" stroke="#0000ff" stroke-width="0.2" stroke-opacity="1"/><path d="M 50 49.99999999999997 L 50.585606559684365 100.40270409048671" stroke="#0000ff" stroke-width="0.2" stroke-opacity="1"/><path d="M 50.585606559684365 100.40270409048671 L 93.3208323624812 98.98252781333794" stroke="#0000ff" stroke-width="0.2" stroke-opacity="1"/><path d="M 93.3208323624812 98.98252781333794 L 189.0014843894301 104.81453474587548" stroke="#0000ff" stroke-width="0.2" stroke-opacity="1"/><path d="M 189.0014843894301 104.81453474587548 L 150.0989774636173 105.78764978204212" stroke="#0000ff" stroke-width="0.2" stroke-opacity="1"/><path d="M 150.0989774636173 105.78764978204212 L 50.58560655968437 100.40270409048672" stroke="#0000ff" stroke-width="0.2" stroke-opacity="1"/><path d="M 50.58560655968437 100.40270409048672 L 93.32083236248118 98.98252781333792" stroke="#0000ff" stroke-width="0.2" stroke-opacity="1"/><path d="M 93.32083236248118 98.98252781333792 L 92.1928990749095 46.37619946855731" stroke="#0000ff" stroke-width="0.2" stroke-opacity="1"/><path d="M 92.1928990749095 46.37619946855731 L 187.11362063895405 61.281378846373826" stroke="#0000ff" stroke-width="0.2" stroke-opacity="1"/><path d="M 187.11362063895405 61.281378846373826 L 189.0014843894301 104.81453474587548" stroke="#0000ff" stroke-width="0.2" stroke-opacity="1"/><path d="M 189.0014843894301 104.81453474587548 L 93.32083236248118 98.98252781333795" stroke="#0000ff" stroke-width="0.2" stroke-opacity="1"/><path d="M 93.32083236248118 98.98252781333795 L 92.19289907490949 46.37619946855734" stroke="#0000ff" stroke-width="0.2" stroke-opacity="1"/><path d="M 92.19289907490949 46.37619946855734 L 49.99999999999999 50.00000000000001" stroke="#0000ff" stroke-width="0.2" stroke-opacity="1"/><path d="M 49.99999999999999 50.00000000000001 L 148.6523710201684 63.774587337990866" stroke="#0000ff" stroke-width="0.2" stroke-opacity="1"/><path d="M 148.6523710201684 63.774587337990866 L 187.11362063895405 61.281378846373826" stroke="#0000ff" stroke-width="0.2" stroke-opacity="1"/><path d="M 187.11362063895405 61.281378846373826 L 92.19289907490949 46.376199468557346" stroke="#0000ff" stroke-width="0.2" stroke-opacity="1"/><path d="M 92.19289907490949 46.376199468557346 L 49.99999999999999 50.00000000000001" stroke="#0000ff" stroke-width="0.2" stroke-opacity="1"/><path d="M 50 -50 L 50 0" stroke="#ffff00" stroke-width="0.2" stroke-opacity="1"/><path d="M 50 0 L 148.26929090238445 1.0169132643944585e-14" stroke="#ffff00" stroke-width="0.2" stroke-opacity="1"/><path d="M 148.26929090238445 1.0169132643944585e-14 L 148.26929090238445 -41.518634805662856" stroke="#ffff00" stroke-width="0.2" stroke-opacity="1"/><path d="M 148.26929090238445 -41.518634805662856 L 50 -50.00000000000002" stroke="#ffff00" stroke-width="0.2" stroke-opacity="1"/><path d="M 50 -50.00000000000002 L 49.99999999999999 -2.1316282072803006e-14" stroke="#ffff00" stroke-width="0.2" stroke-opacity="1"/><path d="M 49.99999999999999 -2.1316282072803006e-14 L 90.09960130549172 16.10730547110122" stroke="#ffff00" stroke-width="0.2" stroke-opacity="1"/><path d="M 90.09960130549172 16.10730547110122 L 184.77076349049327 13.279363548174853" stroke="#ffff00" stroke-width="0.2" stroke-opacity="1"/><path d="M 184.77076349049327 13.279363548174853 L 148.26929090238445 2.655068792385619e-14" stroke="#ffff00" stroke-width="0.2" stroke-opacity="1"/><path d="M 148.26929090238445 2.655068792385619e-14 L 50 -2.8364549047992063e-14" stroke="#ffff00" stroke-width="0.2" stroke-opacity="1"/><path d="M 50 -2.8364549047992063e-14 L 90.09960130549173 16.107305471101213" stroke="#ffff00" stroke-width="0.2" stroke-opacity="1"/><path d="M 90.09960130549173 16.107305471101213 L 116.63216044832811 -26.76496841861782" stroke="#ffff00" stroke-width="0.2" stroke-opacity="1"/><path d="M 116.63216044832811 -26.76496841861782 L 208.6367551827387 -21.961894899589183" stroke="#ffff00" stroke-width="0.2" stroke-opacity="1"/><path d="M 208.6367551827387 -21.961894899589183 L 184.77076349049327 13.279363548174846" stroke="#ffff00" stroke-width="0.2" stroke-opacity="1"/><path d="M 184.77076349049327 13.279363548174846 L 90.09960130549173 16.10730547110123" stroke="#ffff00" stroke-width="0.2" stroke-opacity="1"/><path d="M 90.09960130549173 16.10730547110123 L 116.63216044832812 -26.7649684186178" stroke="#ffff00" stroke-width="0.2" stroke-opacity="1"/><path d="M 116.63216044832812 -26.7649684186178 L 90.09960130549173 -68.23164090993913" stroke="#ffff00" stroke-width="0.2" stroke-opacity="1"/><path d="M 90.09960130549173 -68.23164090993913 L 184.77076349049327 -56.252286688001355" stroke="#ffff00" stroke-width="0.2" stroke-opacity="1"/><path d="M 184.77076349049327 -56.252286688001355 L 208.6367551827387 -21.961894899589204" stroke="#ffff00" stroke-width="0.2" stroke-opacity="1"/><path d="M 208.6367551827387 -21.961894899589204 L 116.63216044832811 -26.764968418617787" stroke="#ffff00" stroke-width="0.2" stroke-opacity="1"/><path d="M 116.63216044832811 -26.764968418617787 L 90.09960130549173 -68.23164090993912" stroke="#ffff00" stroke-width="0.2" stroke-opacity="1"/><path d="M 90.09960130549173 -68.23164090993912 L 50.00000000000001 -50" stroke="#ffff00" stroke-width="0.2" stroke-opacity="1"/><path d="M 50.00000000000001 -50 L 148.26929090238445 -41.518634805662884" stroke="#ffff00" stroke-width="0.2" stroke-opacity="1"/><path d="M 148.26929090238445 -41.518634805662884 L 184.77076349049327 -56.25228668800137" stroke="#ffff00" stroke-width="0.2" stroke-opacity="1"/><path d="M 184.77076349049327 -56.25228668800137 L 90.09960130549173 -68.23164090993913" stroke="#ffff00" stroke-width="0.2" stroke-opacity="1"/><path d="M 90.09960130549173 -68.23164090993913 L 50.00000000000001 -50.000000000000014" stroke="#ffff00" stroke-width="0.2" stroke-opacity="1"/><path d="M -54.54545454545455 -13.636363636363637 L -54.7182130542192 -0.2078231518625803" stroke="#ffffff" stroke-width="0.2" stroke-opacity="1"/><path d="M -54.7182130542192 -0.2078231518625803 L -18.526339487453022 6.702036994201671" stroke="#ffffff" stroke-width="0.2" stroke-opacity="1"/><path d="M -18.526339487453022 6.702036994201671 L -18.470889698981132 -6.048736553932215" stroke="#ffffff" stroke-width="0.2" stroke-opacity="1"/><path d="M -18.470889698981132 -6.048736553932215 L -54.54545454545455 -13.636363636363644" stroke="#ffffff" stroke-width="0.2" stroke-opacity="1"/><path d="M -54.54545454545455 -13.636363636363644 L -54.718213054219206 -0.2078231518625881" stroke="#ffffff" stroke-width="0.2" stroke-opacity="1"/><path d="M -54.718213054219206 -0.2078231518625881 L -46.17787123617387 5.266713401659751" stroke="#ffffff" stroke-width="0.2" stroke-opacity="1"/><path d="M -46.17787123617387 5.266713401659751 L -10.03473767289593 11.96450731856998" stroke="#ffffff" stroke-width="0.2" stroke-opacity="1"/><path d="M -10.03473767289593 11.96450731856998 L -18.52633948745302 6.702036994201674" stroke="#ffffff" stroke-width="0.2" stroke-opacity="1"/><path d="M -18.52633948745302 6.702036994201674 L -54.7182130542192 -0.20782315186259" stroke="#ffffff" stroke-width="0.2" stroke-opacity="1"/><path d="M -54.7182130542192 -0.20782315186259 L -46.177871236173864 5.266713401659748" stroke="#ffffff" stroke-width="0.2" stroke-opacity="1"/><path d="M -46.177871236173864 5.266713401659748 L -37.314012095092934 -2.910694279204724" stroke="#ffffff" stroke-width="0.2" stroke-opacity="1"/><path d="M -37.314012095092934 -2.910694279204724 L -1.3483621243560189 4.276400897115715" stroke="#ffffff" stroke-width="0.2" stroke-opacity="1"/><path d="M -1.3483621243560189 4.276400897115715 L -10.03473767289593 11.96450731856998" stroke="#ffffff" stroke-width="0.2" stroke-opacity="1"/><path d="M -10.03473767289593 11.96450731856998 L -46.17787123617387 5.266713401659752" stroke="#ffffff" stroke-width="0.2" stroke-opacity="1"/><path d="M -46.17787123617387 5.266713401659752 L -37.314012095092934 -2.9106942792047215" stroke="#ffffff" stroke-width="0.2" stroke-opacity="1"/><path d="M -37.314012095092934 -2.9106942792047215 L -37.19380651688961 -16.60367105479105" stroke="#ffffff" stroke-width="0.2" stroke-opacity="1"/><path d="M -37.19380651688961 -16.60367105479105 L -1.3442487074165819 -8.712580573331106" stroke="#ffffff" stroke-width="0.2" stroke-opacity="1"/><path d="M -1.3442487074165819 -8.712580573331106 L -1.3483621243560158 4.276400897115712" stroke="#ffffff" stroke-width="0.2" stroke-opacity="1"/><path d="M -1.3483621243560158 4.276400897115712 L -37.314012095092934 -2.9106942792047144" stroke="#ffffff" stroke-width="0.2" stroke-opacity="1"/><path d="M -37.314012095092934 -2.9106942792047144 L -37.193806516889616 -16.603671054791047" stroke="#ffffff" stroke-width="0.2" stroke-opacity="1"/><path d="M -37.193806516889616 -16.603671054791047 L -45.883815224243996 -21.852436117802007" stroke="#ffffff" stroke-width="0.2" stroke-opacity="1"/><path d="M -45.883815224243996 -21.852436117802007 L -9.974187713154837 -13.773222281250288" stroke="#ffffff" stroke-width="0.2" stroke-opacity="1"/><path d="M -9.974187713154837 -13.773222281250288 L -1.3442487074165876 -8.712580573331113" stroke="#ffffff" stroke-width="0.2" stroke-opacity="1"/><path d="M -1.3442487074165876 -8.712580573331113 L -37.19380651688962 -16.603671054791047" stroke="#ffffff" stroke-width="0.2" stroke-opacity="1"/><path d="M -37.19380651688962 -16.603671054791047 L -45.883815224244 -21.852436117802004" stroke="#ffffff" stroke-width="0.2" stroke-opacity="1"/><path d="M -45.883815224244 -21.852436117802004 L -54.54545454545456 -13.63636363636365" stroke="#ffffff" stroke-width="0.2" stroke-opacity="1"/><path d="M -54.54545454545456 -13.63636363636365 L -18.47088969898113 -6.048736553932231" stroke="#ffffff" stroke-width="0.2" stroke-opacity="1"/><path d="M -18.47088969898113 -6.048736553932231 L -9.974187713154837 -13.773222281250288" stroke="#ffffff" stroke-width="0.2" stroke-opacity="1"/><path d="M -9.974187713154837 -13.773222281250288 L -45.883815224243996 -21.852436117802007" stroke="#ffffff" stroke-width="0.2" stroke-opacity="1"/><path d="M -45.883815224243996 -21.852436117802007 L -54.545454545454554 -13.636363636363653" stroke="#ffffff" stroke-width="0.2" stroke-opacity="1"/><path d="M -200 -50 L -202.3424262387375 -0.7685090288819948" stroke="#007f00" stroke-width="0.2" stroke-opacity="1"/><path d="M -202.3424262387375 -0.7685090288819948 L -60.05595725304718 21.72567589537631" stroke="#007f00" stroke-width="0.2" stroke-opacity="1"/><path d="M -60.05595725304718 21.72567589537631 L -59.477156942759876 -19.47722384718044" stroke="#007f00" stroke-width="0.2" stroke-opacity="1"/><path d="M -59.477156942759876 -19.47722384718044 L -200 -50.00000000000003" stroke="#007f00" stroke-width="0.2" stroke-opacity="1"/><path d="M -200 -50.00000000000003 L -202.3424262387375 -0.7685090288820235" stroke="#007f00" stroke-width="0.2" stroke-opacity="1"/><path d="M -202.3424262387375 -0.7685090288820235 L -176.33599445727887 20.111605848033022" stroke="#007f00" stroke-width="0.2" stroke-opacity="1"/><path d="M -176.33599445727887 20.111605848033022 L -33.359213018855904 39.774487516887156" stroke="#007f00" stroke-width="0.2" stroke-opacity="1"/><path d="M -33.359213018855904 39.774487516887156 L -60.055957253047175 21.72567589537632" stroke="#007f00" stroke-width="0.2" stroke-opacity="1"/><path d="M -60.055957253047175 21.72567589537632 L -202.3424262387375 -0.7685090288820308" stroke="#007f00" stroke-width="0.2" stroke-opacity="1"/><path d="M -202.3424262387375 -0.7685090288820308 L -176.33599445727887 20.111605848033015" stroke="#007f00" stroke-width="0.2" stroke-opacity="1"/><path d="M -176.33599445727887 20.111605848033015 L -146.02257860774938 -11.390549027671899" stroke="#007f00" stroke-width="0.2" stroke-opacity="1"/><path d="M -146.02257860774938 -11.390549027671899 L -4.56880219542578 14.490194773599463" stroke="#007f00" stroke-width="0.2" stroke-opacity="1"/><path d="M -4.56880219542578 14.490194773599463 L -33.359213018855904 39.774487516887156" stroke="#007f00" stroke-width="0.2" stroke-opacity="1"/><path d="M -33.359213018855904 39.774487516887156 L -176.33599445727887 20.111605848033026" stroke="#007f00" stroke-width="0.2" stroke-opacity="1"/><path d="M -176.33599445727887 20.111605848033026 L -146.02257860774938 -11.390549027671888" stroke="#007f00" stroke-width="0.2" stroke-opacity="1"/><path d="M -146.02257860774938 -11.390549027671888 L -144.19883488120777 -64.37173941216504" stroke="#007f00" stroke-width="0.2" stroke-opacity="1"/><path d="M -144.19883488120777 -64.37173941216504 L -4.521916383274618 -29.30823784153866" stroke="#007f00" stroke-width="0.2" stroke-opacity="1"/><path d="M -4.521916383274618 -29.30823784153866 L -4.568802195425768 14.49019477359945" stroke="#007f00" stroke-width="0.2" stroke-opacity="1"/><path d="M -4.568802195425768 14.49019477359945 L -146.02257860774938 -11.39054902767186" stroke="#007f00" stroke-width="0.2" stroke-opacity="1"/><path d="M -146.02257860774938 -11.39054902767186 L -144.1988348812078 -64.37173941216503" stroke="#007f00" stroke-width="0.2" stroke-opacity="1"/><path d="M -144.1988348812078 -64.37173941216503 L -172.12370421964093 -81.97492367268865" stroke="#007f00" stroke-width="0.2" stroke-opacity="1"/><path d="M -172.12370421964093 -81.97492367268865 L -32.69930319670299 -45.15403001451381" stroke="#007f00" stroke-width="0.2" stroke-opacity="1"/><path d="M -32.69930319670299 -45.15403001451381 L -4.521916383274637 -29.30823784153868" stroke="#007f00" stroke-width="0.2" stroke-opacity="1"/><path d="M -4.521916383274637 -29.30823784153868 L -144.1988348812078 -64.371739412165" stroke="#007f00" stroke-width="0.2" stroke-opacity="1"/><path d="M -144.1988348812078 -64.371739412165 L -172.12370421964093 -81.97492367268862" stroke="#007f00" stroke-width="0.2" stroke-opacity="1"/><path d="M -172.12370421964093 -81.97492367268862 L -199.99999999999997 -50.00000000000003" stroke="#007f00" stroke-width="0.2" stroke-opacity="1"/><path d="M -199.99999999999997 -50.00000000000003 L -59.47715694275985 -19.477223847180486" stroke="#007f00" stroke-width="0.2" stroke-opacity="1"/><path d="M -59.47715694275985 -19.477223847180486 L -32.69930319670299 -45.15403001451381" stroke="#007f00" stroke-width="0.2" stroke-opacity="1"/><path d="M -32.69930319670299 -45.15403001451381 L -172.12370421964093 -81.97492367268865" stroke="#007f00" stroke-width="0.2" stroke-opacity="1"/><path d="M -172.12370421964093 -81.97492367268865 L -199.99999999999997 -50.00000000000004" stroke="#007f00" stroke-width="0.2" stroke-opacity="1"/><use id="tat_0" fill="#ffffff" fill-opacity="1" style="visibility: hidden;" xlink:href="#def_tat" transform="translate(-200, -50) rotate(0) scale(1)"/></g>

</svg>
