<?xml version="1.0" encoding="ISO-8859-1" standalone="no"?>
<!DOCTYPE svg PUBLIC "-//W3C//DTD SVG 1.1//EN" "http://www.w3.org/Graphics/SVG/1.1/DTD/svg11.dtd">
<svg id="raiz_svg" width="100%" height="100%" preserveAspectRatio="xMidYMid meet" xmlns="http://www.w3.org/2000/svg" version="1.1" xmlns:xlink="http://www.w3.org/1999/xlink" viewBox="0 0 300 300">

  <defs>

    <rect id="def_fundo" x="-150" y="-150" width="300" height="300"/>

    <clipPath id="corte_fundo">
      <use xlink:href="#def_fundo"/>
    </clipPath>

    <path id="def_tat" transform="translate(-8.5, -7.5)" fill-rule="evenodd" d="        M  2 1        v  1 h  1 v  1 h  1 v  1 h -1 v  4 h  1 v  1 h -1 v  1 h -1 v  1 h  2 v -1 h  2 v  1 h  1 v  1 h -1 v  2 h  1 v  1        h  2        v -1 h  1 v -2 h -1 v -1 h  1 v -1 h  2 v  1 h  2 v -1 h -1 v -1 h -1 v -1 h  1 v -4 h -1 v -1 h  1 v -1 h  1 v -1        h -2 v  2 h -1 v -1 h -2 v -1        h -2        v  1 h -2 v  1 h -1 v -2 h -2        M  8  7        v  1 h  1 v -1 h -1       "/>

    <circle id="def_ponto" cx="0" cy="0" r=".5"/>

  </defs>

  <g id="tela" clip-path="url(#corte_fundo)" transform="translate(150, 150) scale(1, -1)">
    <use id="fundo" xlink:href="#def_fundo" fill="#000000" fill-opacity="1"/>
    <a xlink:href="http://svl.lsd.org.br/current/" target="_blank"><use id="logo" transform="translate(-147, 147) scale(0.08) scale(1, -1)" opacity="1" style="visibility: visible;" xlink:href="http://svl.lsd.org.br:8080/appsweb/svl/.h/image/svl/svl-logo.svg#layer1"/></a>
    <use id="validate" xlink:href="http://svl.lsd.org.br:8080/APACHE/image/button/w3c-svg-1.1.svg#layer1" transform="scale(0.5) translate(214,-279) scale(1,-1)" opacity="1" style="visibility:visible"/>
  <path d="M 0 0 L 0 0" stroke="#ffffff" stroke-width="1" stroke-opacity="1"/><path d="M 0 0 L 0 0" stroke="#ffffff" stroke-width="1" stroke-opacity="1"/><path d="M 0 0 L 0 0" stroke="#ffffff" stroke-width="0.2" stroke-opacity="1"/><path d="M 0 0 L 37.0765933081741 -6.438282862062337" stroke="#ff0000" stroke-width="0.2" stroke-opacity="1"/><path d="M 37.0765933081741 -6.438282862062337 L 122.62052418571751 9.936654265726345" stroke="#ff0000" stroke-width="0.2" stroke-opacity="1"/><path d="M 122.62052418571751 9.936654265726345 L 86.21978084519894 14.971907822610898" stroke="#ff0000" stroke-width="0.2" stroke-opacity="1"/><path d="M 86.21978084519894 14.971907822610898 L -1.4210854715202004e-14 7.105427357601002e-15" stroke="#ff0000" stroke-width="0.2" stroke-opacity="1"/><path d="M -1.4210854715202004e-14 7.105427357601002e-15 L 37.07659330817408 -6.438282862062332" stroke="#ff0000" stroke-width="0.2" stroke-opacity="1"/><path d="M 37.07659330817408 -6.438282862062332 L 36.63187709690648 -57.379317234563956" stroke="#ff0000" stroke-width="0.2" stroke-opacity="1"/><path d="M 36.63187709690648 -57.379317234563956 L 121.32156984272359 -35.22674239596812" stroke="#ff0000" stroke-width="0.2" stroke-opacity="1"/><path d="M 121.32156984272359 -35.22674239596812 L 122.62052418571751 9.936654265726336" stroke="#ff0000" stroke-width="0.2" stroke-opacity="1"/><path d="M 122.62052418571751 9.936654265726336 L 37.07659330817409 -6.438282862062315" stroke="#ff0000" stroke-width="0.2" stroke-opacity="1"/><path d="M 37.07659330817409 -6.438282862062315 L 36.63187709690648 -57.37931723456395" stroke="#ff0000" stroke-width="0.2" stroke-opacity="1"/><path d="M 36.63187709690648 -57.37931723456395 L -1.4048224806066746e-14 -48.6768775782122" stroke="#ff0000" stroke-width="0.2" stroke-opacity="1"/><path d="M -1.4048224806066746e-14 -48.6768775782122 L 85.34364914585083 -28.402242052987077" stroke="#ff0000" stroke-width="0.2" stroke-opacity="1"/><path d="M 85.34364914585083 -28.402242052987077 L 121.32156984272359 -35.226742395968124" stroke="#ff0000" stroke-width="0.2" stroke-opacity="1"/><path d="M 121.32156984272359 -35.226742395968124 L 36.631877096906486 -57.37931723456395" stroke="#ff0000" stroke-width="0.2" stroke-opacity="1"/><path d="M 36.631877096906486 -57.37931723456395 L -7.024112403033373e-15 -48.6768775782122" stroke="#ff0000" stroke-width="0.2" stroke-opacity="1"/><path d="M -7.024112403033373e-15 -48.6768775782122 L -4.940537217012266e-15 1.4210854715202004e-14" stroke="#ff0000" stroke-width="0.2" stroke-opacity="1"/><path d="M -4.940537217012266e-15 1.4210854715202004e-14 L 86.21978084519894 14.971907822610893" stroke="#ff0000" stroke-width="0.2" stroke-opacity="1"/><path d="M 86.21978084519894 14.971907822610893 L 85.34364914585083 -28.402242052987063" stroke="#ff0000" stroke-width="0.2" stroke-opacity="1"/><path d="M 85.34364914585083 -28.402242052987063 L 0 -48.67687757821221" stroke="#ff0000" stroke-width="0.2" stroke-opacity="1"/><path d="M 0 -48.67687757821221 L -6.4946704217661974e-15 0" stroke="#ff0000" stroke-width="0.2" stroke-opacity="1"/><path d="M -17.677669529663696 -2.4424906541753444e-15 L 9.302632243090713 62.475407745120584" stroke="#0000ff" stroke-width="0.2" stroke-opacity="1"/><path d="M 9.302632243090713 62.475407745120584 L 112.3898062315414 72.03633658137538" stroke="#0000ff" stroke-width="0.2" stroke-opacity="1"/><path d="M 112.3898062315414 72.03633658137538 L 84.48080925831337 17.33720013472159" stroke="#0000ff" stroke-width="0.2" stroke-opacity="1"/><path d="M 84.48080925831337 17.33720013472159 L -17.677669529663675 -7.105427357601002e-15" stroke="#0000ff" stroke-width="0.2" stroke-opacity="1"/><path d="M -17.677669529663675 -7.105427357601002e-15 L 9.302632243090716 62.47540774512058" stroke="#0000ff" stroke-width="0.2" stroke-opacity="1"/><path d="M 9.302632243090716 62.47540774512058 L 38.00163717989698 -9.898372566973448" stroke="#0000ff" stroke-width="0.2" stroke-opacity="1"/><path d="M 38.00163717989698 -9.898372566973448 L 138.96992741047987 9.936654265726371" stroke="#0000ff" stroke-width="0.2" stroke-opacity="1"/><path d="M 138.96992741047987 9.936654265726371 L 112.38980623154139 72.03633658137537" stroke="#0000ff" stroke-width="0.2" stroke-opacity="1"/><path d="M 112.38980623154139 72.03633658137537 L 9.30263224309073 62.4754077451206" stroke="#0000ff" stroke-width="0.2" stroke-opacity="1"/><path d="M 9.30263224309073 62.4754077451206 L 38.001637179896974 -9.898372566973425" stroke="#0000ff" stroke-width="0.2" stroke-opacity="1"/><path d="M 38.001637179896974 -9.898372566973425 L -17.677669529663667 -8.881784197001252e-15" stroke="#0000ff" stroke-width="0.2" stroke-opacity="1"/><path d="M -17.677669529663667 -8.881784197001252e-15 L 84.48080925831337 17.337200134721567" stroke="#0000ff" stroke-width="0.2" stroke-opacity="1"/><path d="M 84.48080925831337 17.337200134721567 L 138.96992741047984 9.936654265726371" stroke="#0000ff" stroke-width="0.2" stroke-opacity="1"/><path d="M 138.96992741047984 9.936654265726371 L 38.00163717989695 -9.898372566973428" stroke="#0000ff" stroke-width="0.2" stroke-opacity="1"/><path d="M 38.00163717989695 -9.898372566973428 L -17.67766952966368 -1.5987211554602254e-14" stroke="#0000ff" stroke-width="0.2" stroke-opacity="1"/><use id="tat_0" fill="#ffffff" fill-opacity="1" style="visibility: hidden;" xlink:href="#def_tat" transform="translate(-17.6777, -1.59872e-14) rotate(0) scale(1)"/></g>

</svg>
